<?xml version="1.0" encoding="utf-8"?>
<!-- Generator: Adobe Illustrator 16.0.0, SVG Export Plug-In . SVG Version: 6.00 Build 0)  -->
<!DOCTYPE svg PUBLIC "-//W3C//DTD SVG 1.1 Tiny//EN" "http://www.w3.org/Graphics/SVG/1.1/DTD/svg11-tiny.dtd">
<svg version="1.1" baseProfile="tiny" id="图层_1"
	 xmlns="http://www.w3.org/2000/svg" xmlns:xlink="http://www.w3.org/1999/xlink" x="0px" y="0px" width="416px" height="320px"
	 viewBox="0 0 416 320" xml:space="preserve">
<g>
	<path fill="#FFFFFF" stroke="#040000" stroke-width="0.75" stroke-miterlimit="10" d="M384.461,303.273
		c0,4.52-2.997,8.179-6.688,8.179H151.16c-3.7,0-6.7-3.659-6.7-8.179V124.03c0-4.519,3-8.185,6.7-8.185h226.612
		c3.691,0,6.688,3.666,6.688,8.185V303.273L384.461,303.273z"/>
	
		<rect x="160.771" y="128.563" fill="#FFFFFF" stroke="#040000" stroke-width="0.75" stroke-miterlimit="10" width="207.384" height="170.167"/>
</g>
<g>
	<path fill="#FFFFFF" stroke="#231815" stroke-width="0.75" stroke-miterlimit="10" d="M47.301,314.995
		c-7.291,0-13.201-6.426-13.201-14.353V168.154c0-7.925,5.911-14.349,13.201-14.349h55.172c7.292,0,13.201,6.424,13.201,14.349
		l-0.002,132.488c0,7.927-5.908,14.353-13.199,14.353H47.301z"/>
	
		<rect x="34.957" y="166.872" fill="#FFFFFF" stroke="#231815" stroke-width="0.75" stroke-miterlimit="10" width="79.771" height="133.771"/>
	<path fill="#FFFFFF" stroke="#231815" stroke-width="0.75" stroke-miterlimit="10" d="M82.756,306.844
		c0,1.63-1.319,2.953-2.952,2.953h-9.922c-1.63,0-2.954-1.323-2.954-2.953l0,0c0-1.631,1.323-2.954,2.954-2.954h9.922
		C81.437,303.89,82.756,305.213,82.756,306.844L82.756,306.844z"/>
	<path fill="#FFFFFF" stroke="#231815" stroke-width="0.75" stroke-miterlimit="10" d="M60.216,159.904
		c0,0.626-0.511,1.133-1.134,1.133c-0.626,0-1.138-0.507-1.138-1.133c0-0.628,0.511-1.134,1.138-1.134
		C59.706,158.77,60.216,159.275,60.216,159.904z"/>
	<circle fill="#FFFFFF" stroke="#231815" stroke-width="0.75" stroke-miterlimit="10" cx="62.834" cy="159.904" r="1.134"/>
	<path fill="#FFFFFF" stroke="#231815" stroke-width="0.75" stroke-miterlimit="10" d="M83.466,159.904
		c0,0.422-0.376,0.768-0.838,0.768H67.057c-0.46,0-0.838-0.346-0.838-0.768l0,0c0-0.426,0.377-0.769,0.838-0.769h15.571
		C83.09,159.135,83.466,159.478,83.466,159.904L83.466,159.904z"/>
	<circle fill="#FFFFFF" stroke="#231815" stroke-width="0.75" stroke-miterlimit="10" cx="93.783" cy="159.904" r="2.599"/>
</g>
<g>
	<path fill="#ED18C5" d="M92.174,220.5c-2.146,8.989-4.292,17.981-6.438,26.973c-4.487-1.399-8.976-2.797-13.462-4.195
		c4.196-5.008,8.391-10.017,12.584-15.021c-5.592,4.68-11.186,9.363-16.778,14.046c-3.754-1.333-7.511-2.666-11.266-4
		c0-0.015,0-0.032,0-0.048C68.6,232.336,80.387,226.417,92.174,220.5z"/>
	<path fill="#ED18C5" d="M72.47,246.301c1.332,0.487,2.666,0.976,3.999,1.464c-1.366,2.08-2.731,4.161-4.097,6.242
		C72.405,251.438,72.437,248.87,72.47,246.301z"/>
</g>
<g>
	<path fill="#ED18C5" d="M290.445,184.5c-3.618,15.16-7.239,30.324-10.857,45.487c-7.567-2.36-15.137-4.717-22.703-7.075
		c7.075-8.445,14.15-16.892,21.223-25.332c-9.431,7.892-18.864,15.79-28.294,23.687c-6.332-2.247-12.668-4.495-18.999-6.745
		c0-0.024,0-0.055,0-0.081C250.689,204.461,270.567,194.479,290.445,184.5z"/>
	<path fill="#ED18C5" d="M257.218,228.011c2.246,0.822,4.496,1.646,6.742,2.469c-2.302,3.508-4.604,7.018-6.908,10.527
		C257.105,236.676,257.16,232.344,257.218,228.011z"/>
</g>
</svg>
