<?xml version="1.0" encoding="utf-8"?>
<!-- Generator: Adobe Illustrator 16.0.0, SVG Export Plug-In . SVG Version: 6.00 Build 0)  -->
<!DOCTYPE svg PUBLIC "-//W3C//DTD SVG 1.1//EN" "http://www.w3.org/Graphics/SVG/1.1/DTD/svg11.dtd">
<svg version="1.1" id="图层_1" xmlns="http://www.w3.org/2000/svg" xmlns:xlink="http://www.w3.org/1999/xlink" x="0px" y="0px"
	 width="68px" height="68px" viewBox="0 0 68 68" enable-background="new 0 0 68 68" xml:space="preserve">
<circle fill-rule="evenodd" clip-rule="evenodd" fill="#2EA7E0" cx="34.125" cy="33.875" r="32.75"/>
<g>
	<g>
		<path fill-rule="evenodd" clip-rule="evenodd" fill="#FFFFFF" d="M13.573,32.305c4.411,1.416,8.824,2.832,13.235,4.245
			c5.742-4.827,11.487-9.655,17.23-14.483C39.71,27.311,35.381,32.555,31.053,37.8c5.244,1.498,10.489,2.996,15.732,4.494
			c2.247-10.071,4.495-20.144,6.742-30.215C40.293,18.571,13.656,32.056,13.573,32.305z M31.053,49.535
			c1.665-2.33,3.329-4.66,4.994-6.991c-1.581-0.583-3.162-1.167-4.744-1.748C31.22,43.71,31.137,46.623,31.053,49.535z"/>
	</g>
</g>
</svg>
