<?xml version="1.0" encoding="utf-8"?>
<!-- Generator: Adobe Illustrator 19.0.0, SVG Export Plug-In . SVG Version: 6.00 Build 0)  -->
<svg version="1.1" id="Layer_1" xmlns="http://www.w3.org/2000/svg" xmlns:xlink="http://www.w3.org/1999/xlink" x="0px" y="0px"
	 viewBox="187 11.4 1173.9 579.6" style="enable-background:new 187 11.4 1173.9 579.6;" xml:space="preserve">
<style type="text/css">
	.st0{fill:none;stroke:#434D54;stroke-width:1.5;stroke-linecap:round;stroke-linejoin:round;stroke-miterlimit:10;}
	.st1{fill:none;stroke:#545A5E;stroke-linecap:round;stroke-miterlimit:10;}
	.st2{fill:#1E88E4;}
	.st3{enable-background:new    ;}
	.st4{fill:#FFFFFF;}
	.st5{opacity:0.2;fill:#1E88E4;enable-background:new    ;}
	.st6{fill:#006699;}
	.st7{fill:#0066CC;}
</style>
<path class="st0" d="M1360.4,506.8c-1.2,1.4-2.8,2.3-4.7,2.6v2.6c-1.5,2.1-3.2,4.1-5,6c-1.4-1.8-2-3.9-1.9-6.2l-2.4-1.3l-0.5-2
	c1.5-1.4,2.4-3.1,2.8-5.1c-0.8-2.6-2.1-5.2-3.9-7.3l0.9,1.5c-2-2.2-3.4-4.7-4.9-7.2l1.4-0.1l0.4,1.6c3.4,0.9,4.5,4.1,6,7l-0.1,1.1
	l2.5,1.3l-0.3-1.8c1.2,2.3,3,4,5.5,5l3.4-1.4L1360.4,506.8L1360.4,506.8L1360.4,506.8z M1343.1,517.6l3.1,0.1l0.1,1.4
	c-1.1,2-2.5,3.8-4.4,5.2l0.4,2.7c-2.4,0.4-4.5,0.9-6.7,1.8l0.6,2.8l-1.7-0.3l0.8,1.7l-1.6,3.4l-5.4,2.4l-5.2-1.9l-2,0.4l-0.5-1.4
	l0.4-1l1.1,0.4c4.8-8.4,15.2-10.5,18.3-20.6L1343.1,517.6L1343.1,517.6L1343.1,517.6z M800.5,211.5c-6.6-1.3-8-4.2-12.5-8.4
	c0.6-2,0.6-4.1,0.1-6.1c-2.9-2.4-6.1-4.4-9.3-6.5l-1.8-0.1l-3.1-3.1l1.2-0.1l-3.9-4.4l-1.5,2.3l-1.2-2.9l0.5-1h-1.8l-3.2,2.1l0.8,1
	l-0.5,1.3c2.5,3.8,5.7,7,8.3,10.7l3.7,0.5l0.4,2c2.6,1,5.2,2.2,7.4,4l0.7,2.6c-1.2-1.1-2.4-2-3.9-2.9l-2,1.9l1.9,2.4l0.1,1.5
	l-1.5,0.6l-1.3,2.1l-2.5,1.3l1.9-2.8l-1.6-4.7c-1.7-0.7-3.2-1.6-4.6-2.7l0.5-0.4c-7.4-3.8-12.6-9-18.3-14.9c-4,1.3-7.5,3.7-11.1,5.7
	c-1.4-1.1-3-1.5-4.8-1.4l-4,3l0.3,2.3c-2.2,2-7.9,5.5-7.9,5.5l-2.5,2.1l0.3,5.3l-3.4,4.3l-2.3,0.8l-1.9,2.4
	c-4.1,1.2-8.3-0.3-11.5,3.1l-1.8-0.4l-1.9-3.1c-2.7-0.2-5.4-0.3-8-0.1c0.4-2,0.5-3.9,0.5-5.9L692,210l-0.8-0.6
	c1.8-4.8,2.1-9.6,2.9-14.4l-1.9-1.9c6.5-5.5,17.7-1.8,25.5-2.7l1.7-4.5l-0.7-0.1l0.6-3.5l-0.2-3.3c-1.4-1.7-2.8-3.5-4.2-5.2
	l-1.3,0.1c-1.9-1.1-4-2-6.2-2.5c0.3-0.6,0.7-1,1.2-1.4l-1.5,0.2l4-1.6c2.4,0.4,4.7,0.4,7.1,0.1c0-1.6-0.5-3.1-1.5-4.4h2.3l1.7,1.4
	l3.4-0.3c3.4-3.5,6.3-8.1,11.6-8.5l-0.8-0.8c2-1.3,3.3-3.1,3.9-5.5l1.9,0.6c-0.5,0.5-0.8,1.1-0.9,1.8c0,0,1.9-2.7,1.3-3.4
	c1.2-1,2.6-1.5,4.2-1.6h1.2l2.5-1.1l1.6,0.3l1.1,0.4l1.9-1.5c-0.4-0.6-1.8-2.2-1.8-2.2c0.3-2-1.8-5.5-1.8-5.5l0.7-2.1l-0.4-1.9
	c1.2-0.2,2.2-0.8,2.9-1.7l0.9,0.8l1-1.9l2.1,0.3l1.2,1.8l-0.2,2.1c-1.1,0.4-2.1,1.1-2.8,2l-0.8,3l1.5,2.4l2.1,0.7l0.7,1.5l2.4,0.3
	c1.5-0.9,3.2-1.6,4.9-2c1.7,1.3,3.5,2.5,5.3,3.6l1.6-1.9c3.5-1.4,7.2-2.4,10.9-3.4l1.8,2.1c2.9-0.8,5.3-2.4,8.1-3.3
	c0.1-2.3-0.2-4.8-0.9-7c0.7-1.1,1.1-2.2,1.4-3.4l4.2-2.1c1.1,1,2,2.1,2.7,3.4l3-2.1l0.6-4.3l-1.3,0.5c-0.5-1.3-1.3-2.5-2.3-3.5
	l0.9-1.5c5.3-2,9.8-0.3,15-1.2l-0.6-1.8c1.8-0.3,3.6-0.5,5.4-0.7l-0.7-1.6l-2.1-0.2l-0.8-2.2l-3.4,1.3l-2.9-0.9
	c-0.5,0.9-1.3,1.6-2.3,2c-2.1-0.2-4.3,0.2-6.3,0.9l-3.3-1.4l-2,0.4c-0.8-0.8-1.6-1.4-2.6-2c0.2-4.8-3-8.9-0.4-13.5l2.8-0.8l0.9-2.2
	l1.7-0.3c2.2-2.5,4.6-4.7,7.4-6.4l-0.4-2.5c-2.5-1.7-5.6-2.6-8.6-2.8c-2.4,1.9-4.1,4.2-5.8,6.6l0.8,2.4c-1.1,2.4-3.1,3.9-5.7,4.2
	c-2.3,2-5.1,3.2-7.2,5.5c-0.6,2.8-0.7,5.8-0.2,8.7c2.4,1.1,4.6,3,6,5.2c-2.6,1.7-5.8,2.1-8.8,1.3c2.2,0.9,4.4,1.1,6.7,0.6
	c-0.8,0.4-1.5,0.7-2.3,1.1l-0.9,1.6c-1.1,0.3-2.3,0.6-3.4,0.9l1.1,2.3c-1.5,3.3-2.3,6.8-3.3,10.2c-1.6-0.1-3.3,0.1-4.9,0.5l-0.2,1.8
	l-4.9,0.8v-2.1l-1.3-2l0.7-0.9c-1.3-2.8-3.4-5.3-3.9-8.5l-0.7-0.5c0.1-1-0.1-2-0.7-2.8l0.4-1.3l-1.5-0.3l-0.4-1.9
	c-2.6,3.6-6.4,6.2-10.6,7.9c-1.8-0.5-3.6-1.2-5.3-2l-1.6-6.5l-0.8-2.7l-0.3-1.9l0.2-4.1l1.3-3.5l2.8-0.9l1-1.6l3.1-0.1l-1.5-1.7
	l3.9,0.4c2.5-2.8,5.2-5.5,8-8.1l2.3-0.4c0.9-1.7,2.3-2.9,4.1-3.6l-0.8-1.8c0.9-1.9,2.3-3.3,4.3-4.1l-1.5-1.6l2.8-1.2l-0.7-1.3
	c3.3-1.2,5.4-3.9,8.1-6l1,0.4l0.3-2.6c1.9-2.1,3.9-4,5.9-6.1c1.6,0.6,3.2,0.6,4.8,0.1l1.7-2.5c0,0,2.4-0.2,3.9-1.5l7.5-2.4
	c2.4-1.1,4.8-2,7.3-2.9c0,0,0.8,1.3,2.6-0.2l4.2-0.5l2.8,1.3l4.6,1.5l1.4,2.2l-5.7,0.4c2,1.8,4.7,2.7,7.4,2.8l3.7-1.8
	c0,0,20,9.3,29.8,13.6l0.9,2.8l-2.1,3.5c-10.5,0.5-18.1,0.9-27.9-3c2.6,2.4,5.3,4.6,8.2,6.5l-1.2,2.9l1.6,4.3c3.1,2,6.5,4,10.3,3.4
	l0.2-1.6l-2.5-0.8l-1.8-3.1c4.1,0.5,8.4,2.3,12.5,1.6c-0.5-1.9-0.8-3.8-0.9-5.7c2.8-1.2,5.5-2.6,8.1-4.1l5,2l0.9-5.2
	c-0.6-0.7-1.3-1.4-1.9-2.1l1.5-4.4l-1.1-2.2l4.2,0.2l5.2,4.2l-5.3,2.8l7.7,2.2c2.9-5.2,13-10.2,18.7-9.6l3.2-1.8l-0.9,2.8l0.5,1.3h3
	l1.6-1.6c4.9-0.1,9.5-3,14.3-2l-0.1,2.3c1.7-1.1,3.4-2,5.2-2.7l-1.3-4.5c8.3-2.9,18.4,3,25.1,7.4l3.5-3.2l-3-0.5l-0.8-3l-4.1-2.3
	l2-2.8c-0.9-1.5-1.5-3.1-1.9-4.8c5-2.1,5.5-7.3,9.1-10.8c3.8-0.1,7.4,0.6,11.2,1.2c-1.1,2.6-2.1,5.3-2.9,7.9l2.7,4.9
	c-1.2,2.8-1.2,5.9-1,9l2.9,3.4c-1,3.1-2.5,5.8-5.3,7.6L963,80c-2.7,0.3-5.5,0.3-8.2,0.1c2.8,1.7,5.8,2.8,9,2.9
	c4.6-2.1,6.2-5.6,9.9-8.6l-1.2-3.6l8.1-1.6l4.1,6.8l1.7-0.9l-3.6-1.1l1.8-2.2l-1.1-3.3c-4.3-2.5-7.9-2.8-12.7-3.2l-0.8-2.9l1.5-3.2
	l-2.2-5.9c2.7-2.3,4.3-5.7,5.3-9l2.1,1.3c-0.4,2.5-0.5,5.1-0.4,7.7c3.5,1.1,7,1.3,10.3,2.7l-1.6-3.3l-4.7-0.8l-1.4-1.2
	c6.8-3.7,14.8-1.3,21.8,0.4l-2.2,3.8v4l2.1-2.6l0.7,3.3c0.6-3,1-6,1.1-9c-1.5-0.6-2.8-1.7-3.5-3.1c-1.5-0.3-3-0.9-4.4-1.6
	c-0.1-2.1-0.7-4-1.8-5.8c7.1-1.4,13.8-2.2,21-2.7l-2,2.2l4.8-2.4l-2.6-4.1c8.7-11.2,30-11.8,43-10.7l2.4-2.9l2.6-0.7l0.2-1.8l8-5.3
	l5.1,0.2l-2,3.7c3.1,0.1,6.2,0.4,9.3,0.8l-2.8,3.2l3.4,0.2l2.8-1.7c7,0.2,10.5,2.5,16.9,3.9l1.4,1.5l-2,2.5l1.8,1.4
	c-9.3,5.2-19.8,10-27.9,16.6c4.8-2.7,11.2-3.4,16.5-4.9l0.1-2.7c2.7,1.3,5.9,1.7,8.8,1.1l2.2,3.6l2.1-2.3c4.8-1,9.7-0.1,14.4,0.2
	l1,3.3c4.5,1.3,9,0.1,13.4,1.5c1.4-2.2,3-4.2,4.7-6.1c5,1.4,9.7,3.1,14.4,5c-2.8,0.9-5.5,2.1-7.8,3.8c6.1,2.3,11.9,5.8,17.8,8.6
	l4-5.3l6,3.2l6.1-1.3c0,0,6.7,0.1,8-0.9l3.8-3.7l-2.9,0.1c9-2.4,12.4-3.1,22.3-1.5l-2.5,1.8l3.2,0.5l3.7-0.9l9.4,1.9l-3.4,1.8l7.3,2
	l3.5,3.7c8.6-1,14.8-1.4,23.4,0.2l2.1,4.3l3.7,2.2l0.7,2.8c2.5-2.5,5.9-2.9,9.3-3.4c4.1,2.6,6.9,0,11.1,0.7c3.3,0.6,5.7,3.2,8.7,4.7
	l4.2-1.1l-2.6-4.1l1.4-2.3c10.1,0.7,22.6,0.8,31.4,6.6c0,6.5,0,13.1,0.1,19.6l-2.6,3.6c-1.8,1-3.6,1.3-5.5,0.9l-1-1.6l-1.8,0.7
	l-2-0.6l-0.1,2c1.9-0.1,3.6,0.6,4.8,2.1c1.1,0.2,2.1,0.6,3,1.4l-0.5,2.4l2.8,3.5l1.2-0.2l-2.5,2.5l-4.7-1.8c-3.7,3-8.1,3.6-12.2,5.6
	c-4.5,2.3-8.2,6-13.1,7.8l-4-1.9c-3,0.4-5.8,1.6-7.9,3.8l0.5-3.2c-1.8,0.4-3.3,1.4-4.4,3l-1.7-0.7c-1.6,0-2.9,0.5-4.1,1.5l0.1,1.3
	c-1.5,1.8-2.9,3.7-4.3,5.7l1.7,2.2l2.3,0.9l-1.7,2l1.8,2.6l-0.7,3.1l-0.7-2c-2,5.2-2.8,9.5-9.1,10.4l-1,1.9l0.7,2.3l-3.2,1.2
	c-2.1,3.3-4.8,6-7.4,8.9c-2.5-10-6.7-21.6,0.3-30.6c6.4-3.4,13.1-7.6,17.4-13.7l3.3-1.1l3-3.3c-0.2-1.4,0-2.8,0.5-4.2l4.4-1.4
	l-17.7,8.8c0.8-1.9-19,2.9-20.4,5.1l3.3,2.3c-4.2,1-8.7,0.9-13.1,1.5l2.9-1.2c0,0-5.7-1.8-7.1-2.7c-1.7,0.3-3.2,1.2-4.3,2.5
	c-6-1.3-12.4-0.5-18.5-0.9c-9,5.9-19.6,13.9-26.8,22.1l5.2,1l3.1,3l3.5-1.4l5.7,1.5c5.6,5.4,1.2,21.4-3,26.9
	c-5.4,7.2-11.8,18-20.7,20.7c-0.9-0.4-1.8-0.9-2.6-1.5l-2,0.2l0.5-1c-2.5,2.2-7.3,9-7.3,9c-1.7,2.3-3.9,4.2-6.6,5
	c0.4,5.9,5.7,9,6.2,15.1l-1.8,3.4c-3,0.3-5.5,1.7-8.5,2.8c0.6-3.4,0.7-6.6-1.5-9.3c0.8-0.7,1.7-1.2,2.7-1.4l-1-1.8
	c-1.3,0-2.7,0.1-4,0.2l-1.9-2.5l2-2.1l-0.5-3.4l-3.4-1.4c-3.7,0.7-7,2.5-10.2,4.4l2-2.2l-1.4-0.8l2.7-3.8l-2.1-1.3
	c-3.6,2.4-6.8,5.5-10.7,7.2l-1.7-0.6l1.2,4.1l2.6,1.4l1,2.6l4.1-2.5c2.1,1,4.3,1.6,6.7,1.6l-0.4,2.1l-4.7,0.5l-3.3,1.8l-2.9,4.9
	c3.1,2,7,9.9,7,9.9c0.5,1.9,0.6,3.9,0.4,5.9l-4.3,1.9c2.1-0.2,4.1,0.1,6.1,0.9l-0.4,1.8l-1.4,3.9c0,0-3.7,5-6,6.4v2.9
	c-1.1,1.3-5.8,5.8-6.1,6.6c-4.1,2.4-9,6.7-14,3.9c-2.6,4.6-7.6,3.6-11.2,6.6l0.3,1.9c-1.3-2.3-3.2-4.1-5.6-5.3
	c-0.8,0.9-3.7,3.1-3.7,3.1c-3.5,1.3-5.2,4.4-5.5,8.1c5,8.2,13.1,12.8,11.1,24c-2,2-4.8,3-7.7,3.4c-0.1,1.1-0.3,2.2-0.6,3.3
	c-2.2,1.1-4.4,2.5-6.3,4c0.5-2-4.1-6.9-4.1-6.9l-7.5-6.9l-1.2-3l-3.2,1.3c-0.4,4.3-3.1,8.2-2.8,12.4l2.3,0.4c1,2.3,1.8,4.7,2.3,7.1
	c3.3,1.3,5.8,3.9,8.3,6.4c1.3,4.4,1.1,9.1,4,12.8c-3.5-0.5-6.6-2.2-9.3-4.3c-0.4-1.9-1.3-3.5-2.7-4.8c-0.2-3.1-1-6.4-3.2-8.6
	c0,0-3.3-3.7-4.6-5c0.8-9.5,2.8-23.4-5-31.2l-2.1,3.2l-3.1,1.5l-1.4-0.7l-2.3,0.5c1.6-3.8,0.3-7-0.5-10.8l-1.8-0.1l-9.6-13.3
	l0.1,3.2l-5.3,1.9l-6.4,0.7c-2.1,7-17.2,17.6-23.6,21.3c0.1,5.6,0.2,9.7-1,15.2c-1.3,0.9-2.2,2.1-2.5,3.5l0.4,1.5
	c-2,0.8-3.6,2-4.8,3.8c-6.8-8.7-20.4-31.7-15.4-43l-1.3-5l-2.2,3.5l-4.3,1.6l-6.3-5.8l5-2l-5.3-0.6c-1.2-1.3-5.8-6.3-7.2-7.5
	c-3.1-1-6.3-0.4-9.4-0.8c-7.3,1.9-15,0.7-22.1-1.5c-0.7-1.6-1.5-3.2-2.5-4.7l-5.2,1.9c-10.6-1-11.2-11.2-19.2-14.2
	c-1.8,1.5-3.5,3-5.3,4.4c0,0,2.9,3.6,3.7,5.4c1.7,1,3.2,2.3,4.6,3.7l-0.5,0.9c0.6,2.1,4.2,1.6,4.2,1.6c0.3,2.4,0.7,4.9,1.2,7.3
	c2.8,0,5.5-0.4,8.2-0.6c2.6-2.5,5.6-4.5,7.9-7.3l-0.7,2.6l1.1,3.2c3.2,3.5,7.9,4,10.8,7.7c-2.1,4.2-5.4,7.6-7.2,12
	c-3.7,1.2-5.5,5.2-9.1,6.2c-4.1,1.1-8.4,2.1-10.5,6.1c-8.2,1.9-18.5,10.3-26.9,9.1c-3.9-11.6-6.3-20.2-15.3-29.2
	c0.3-5-2.2-9.8-6.6-12.2c-1-5-5.1-8.6-8.2-12.3l1.1-4.7c-1.4-2.2-2.3-4.7-2.6-7.3c1.4-4,3.4-7.7,5.3-11.5l-0.9-3.8l1.1-3.6l-0.8-1
	c-3.4,0.2-6.4,1.6-9.6,2.6c-2.2-1.7-4.9-2.7-7.6-3.1l-1.5,2.4l-2.2,0.1l-1.6-2.2c-1.2-0.1-2.4-0.1-3.6,0c-0.6-1.1-1.5-2-2.6-2.8
	l-0.1-1.9l-2.2-2.1l0.9-0.6l0.1-1.3l-0.6-1.2l-1.8-0.8l5.5-3.9c1.5,0.4,3.7-0.2,3.7-0.2l3.5-1l-2.2-0.5l1-1.2c1.7-0.2,3.3,0,4.9,0.5
	c3.9-2.6,9-4.2,13.6-4l3.4,1.5l0.9,1.4c5.6,1.5,10,0.9,15.8,0.8l0.5-7.1c-4.9-1.5-7.1-6.4-12.3-7.5l-1.8-2.3l3.4-3.2l-0.7-2.4
	l4.7-2.8c-5.9,1.3-11.9,4.4-17.8,4.9c2.2,2.4,5.5,4.2,8.8,3.4c-2.7,1.3-5.6,2.1-8.2,3.5l-2.2-0.1l0.4-2l-3.5-1.6l2.9-1.5l-4.3-2.1
	l-0.4-2.4c-3.2,0.6-5.4,3.1-7.8,4.8c-0.3,0.8-0.3,1.7-0.1,2.5l-2.6,1.8c-1.4,3.2-2.8,6.3-3.7,9.6c0.9,1.9,2.4,3.1,4.3,3.8l-1.5,1.3
	c-2.9,0-5.6,1.7-7.8,3.6c0,0-5.1-4.2-8.6-2.5l2.2,2.4l-2.2,0.9l-2.9-2.3l-0.9,0.1c0.3,1.9,1,3.8,1.9,5.5l-0.7,0.4l-1.2,0.6l4.7,2.6
	l-0.2,2l-3.2-1 M904.9,198.1l-2.2-2.4l-1.9,3.7c-0.8-1.7-1-3.4-0.8-5.3c-3-2.2-5-4.9-7.6-7.4l0.5-1.3l3.1,0.2l-1.5-1.2l1.1-1.5
	l6.1-0.4l-1.1-0.7c0.7-1.6,1.1-3.2,1.3-4.9c-2.3-0.9-4.7-1.5-7.1-1.7c-4.1,1.6-7.5,5.2-12,5.7c-0.5,1.8-1.4,3.4-2.7,4.7l1.6,1.4
	l1.5,1.5c-1.3,4.8,5.1,12.5,9.3,14.6l-2.6,0.3c0,1.7-0.5,3.3-1.4,4.6l-1.5,4.9c4.4,3.4,11.8,5.6,17.2,3.8c-0.2-2.6,0-5.3,0.4-7.9
	l-2.8-1.9l1.9-0.9l-0.4-1.8l-2.7-1.3l0.7-3.1c1.2,0.3,2.3,0.8,3.2,1.5l1.1-0.9L904.9,198.1L904.9,198.1L904.9,198.1z M724.2,156.4
	l3.2,0.4l-1.2,2.1c-4.8,0.8-9.9,1.6-14.8,1.2l-0.6,1.6l-2.3-0.3l-3.1,1.7l-1.6-0.8c1.8-0.8,3.1-2.1,4.1-3.8c1.6-0.9,3.3-1.1,5-0.9
	l1-2c-2.8,0.8-5.8,0.3-8.4-0.9l3.3-1.9l0.5-1.8l-1.7-0.7l5.6-2l0.1-4.2l-1.9-0.3l0.9-2.7c-2.2,0.4-4.4,0.5-6.6,0.3l1.4-3.2l-0.6-1.5
	l0.7-1.6l-3,1.8c0-1.4,0.1-2.8,0.1-4.2l-1.7,0.7c0.8-2.2,1.8-4.1,3.2-6l-0.9-1.8l1.4-0.4v-1.9l1.9,0.9l4.1-0.6l-3.6,4.4l7.4,0.6
	l-3.6,5.5l1.2,0.8l-3.7,0.9l4.9,0.6l2.2,1.8l0.9,3.1l2.7,1.9c1.2,2.3,2,4.8,2.3,7.4l5.5,1.5L724.2,156.4L724.2,156.4L724.2,156.4z
	 M704,137.3l0.6-0.1L704,137.3L704,137.3L704,137.3z M704.2,143.5l-2.6,1.8l1.5,3.9L701,153c-3.6,1.1-7,2.6-10.6,3.5L689,155
	l0.7-1.4l-1.6-0.1l2.2-0.7c0.6-0.9,1.4-1.5,2.3-2L691,151l0.4-1.2l1.9-1.1l-4.2-1l0.1-0.9l1.5-1.4l-1.6-0.1l5.3-1.4l1.3-2h-2.1
	c0.9-0.6,1.6-1.4,2.1-2.3c2.3,0.4,4.6,0.4,6.9-0.1L704.2,143.5L704.2,143.5L704.2,143.5z M774.3,216l-2,0.8c-2.6-0.9-5-2.6-6.7-4.8
	c3-0.1,6.3,0.2,9.4-0.5c-0.6,0.9-1,1.8-1.2,2.9L774.3,216L774.3,216L774.3,216z M690.1,237.3c1.4-1.4,2.1-3,2.1-4.9
	c2.5-2.4,5.4-4.3,8.5-6c0.6-2.2,1.7-4.3,3.2-6c2.6,1.9,5.7,2.7,8.8,1.9l1.2,0.7c3.1-1,5.7-2.4,8.8-2.3c7.4-4.9,16.8-3.2,25.2-5
	l1.6,1.1l5-1.9l2.8,1.4l2.8-0.6c-0.3,3.7-1.4,7.3-2.9,10.7l1.2,2.7h2l1.2,1.5c5.5,1.2,11.8,2,15,7.1c3.8,1.2,7.7,2.4,11.6,3.4
	c2.1-2.3,3.5-5.1,4.3-8.1l7.6,0.2c1.9,1.5,4.1,2.3,6.5,2.3l0.8,1.4c4.4-0.1,9,0.8,13,2.6l4.3-2.1c4.3,0.1,9.2,0.6,13.2,1.5
	c0.7,1.9,1.5,3.8,2.2,5.6c-1.1,1.8-1.8,3.8-2.1,5.8l-5.5-7.5c-1.2,9.1,10.4,16.1,10.8,25.3l3.4,3.6l1.3,9.3
	c4.6,4.6,6.1,7.8,8.4,13.9l0.4-1.3c2.9,3.5,7.6,6.9,11.3,9.8l-2.2,3.2c2.5,0.8,4.6,2.3,6.5,4.2l4.8-1.4l1.5,0.5l3.1-1.7l2.2,0.2
	c2.8-0.8,5.8-0.7,8.2-2.4l2.4,0.2c-1.4,11.1-8.2,21.1-15.5,29.4c-6.4,7.3-21.9,14.2-23.3,24.9c-4.2,3.9-0.9,12.9,0,18l2.9,2.8
	c-0.9,4-0.6,10.3,1.2,14l-5.4,7.4c-6.5,2.8-12.1,6.2-14.7,13.3c2.8,4.4,1,8,1.8,12.6c-3,2.8-7.1,3.2-9.7,6.4l1.4,1.7
	c-1.8,14.1-16.3,24.1-28.4,28.6l-2.5-1c-1.6,0.6-3.2,0.8-4.9,0.5l-2.6,1.5c-2.4-0.2-4.9,0-7.3,0.5c-0.8-0.7-1.8-1.1-2.8-1.2
	c0-1.9-0.6-3.7-1.8-5.2c0.6-0.6,1.1-1.4,1.3-2.2c-2.5-7.9-7.8-13.7-10.8-21.2l0.2-1.2c-1.3-4.3-2.9-9.9-2.5-14.6
	c-4.3-7.3-9.1-13.5-8.7-22.1c2.4-3.8,1.9-8.5,5.6-11.3c1.7-3.8,1.1-7.5-1.2-10.8l1.1-2.5c-4-8.8-7.4-14.8-13.7-22.2l0.3-1.4
	l-1.6-2.7c0.7-1.2,1.7-2.1,2.9-2.9l-1.7-1.5c0.4-3.8,2.2-7.1,1.4-11.1c-1.8-0.8-3.5-1.8-5-3.1c-2.6,0.7-5.4,1.1-8.1,1l-1.3-3.5
	l-1-0.4c-0.7-1.1-1.7-2-2.9-2.6c-6.8-0.1-14.3,2.1-20.3,5.2c-1.3,0-2.6-0.4-3.6-1.2c-6.1,0.1-11,0.8-17,2.4c-6-4-12.8-7.7-17.7-13.1
	l0.9-0.9c-1.9-3.6-5.2-6.3-8.2-8.8l0.9-1.9l-3.9-1.5l-1.5-1.9c0.1-1.2,0.3-2.3,0.5-3.5l-2.8-3.4c3.9-3,6.3-11.7,3.2-15.7l0.6-1.5
	l-2.4-3.4c1.4-5.3,5-14.5,8.7-18.4c5-5.3,12-8.8,15.9-14.7L690.1,237.3L690.1,237.3L690.1,237.3z M483.2,121.5l-1.8,1.3l-3.8-0.5
	l-3.4-2.8l-2.3,0.3l-1.3,2l-5.2,2.6l-0.4-2.8l-5.1,0.9c0.6-1.3,1.5-2.2,2.7-2.8c0.5-3.3,1.5-6.5,2.4-9.7l1.3,2.8
	c4.7,0.8,10,3.5,12.8,7.5C480.5,120.6,481.9,121.1,483.2,121.5L483.2,121.5z M497.7,242.5L497.7,242.5L497.7,242.5L497.7,242.5z
	 M439.9,77.5l0.3,3.1c1.9,1.1,3.2,2.7,4,4.8l-2.8,2.3c2.4,0.5,4.8,1,7.1,1.5c-0.6,2.3-0.3,4.6,0.6,6.8l7-3.7l1.3,2.6l-2,1.8l2,4.1
	l3.9,1c0.7-1.6,1.8-2.9,3-4.1l0.6-2.9l3.2-1.3c-1.1-1.7-2-3.5-2.6-5.5c3.9-0.3,7.9-0.1,10.8,2.7l1.8,0.1l-0.6,4l-2-1.4l3.3,7
	l-2.2,4.8l-5,1l-4.7-2.2c1.6,0.9,3,2.2,4.2,3.6c-3.3-1.1-7-1.4-10.4-0.8l2.9,1.6l-5.5,4.4c-2.5-1.4-5.2-2.6-8-3.5l-2.8,0.5
	c4,2,8.1,3.3,12.3,4.6l-2.9,4.6l-6.5,0.2l0.3,3.3c-3.9-0.5-7.6-1.3-11.5-2.1c2.8,1.7,5.8,3.1,8.9,4l-4,1.8l-0.2,1.4
	c-1.7,1.3-3.4,2.6-5.1,3.9c-0.9,5.1-5.4,8.4-4.5,13.9l4.1,1.8l3.5,8.4l7.3-0.7c9,4.2,15.7,8.3,25.9,9.5c2.6,8.8,1.9,14.1,10.8,19.3
	l-0.3-2.8l2.1,1.4c-0.1-1.8,0.2-3.6,0.8-5.3c-0.6-3.8-2.3-7.2-2.8-10.8l2.9-1.1l7.1-9.1l-6.8-8.5c2.3-3.1,4.2-6.3,3.4-10.3l-2.6-0.1
	l2.4-4.1l-1.7-3.5c5,0.1,10.1,0.7,14.9-0.9c2.8,1.7,5.4,3.2,7.1,6.1l6.1,1.2c-0.3,3.2,0.2,6.4,0.6,9.6l-1.5,1l0.5,1.4l4-0.9l2.2,2.7
	l3.9-1.6l2.6,0.5c0.6-2.2,1.2-4.3,2-6.5l2.2-2.1c2.5,2.5,5.4,5.3,5.6,8.9c1.1,1.1,2.3,2.2,3.6,3.1l-0.8,1.5l2.6,3.2l-3.1,0.1
	l1.2,2.1c1.8,0.6,3.4,1.6,4.7,3l-0.1,2.9c3.6-0.4,7.2,0.7,10.5,2.3c-2.6,1.5-5.4,2.8-8.4,3.5l-0.9,2.4c2.8-0.8,5.5-2.1,7.9-3.8
	l1.9,0.5l0.6,2.3l4.1,0.5c0.2,1.6,0.3,3.1,0.4,4.7l-2.2,2.9c-4.5,0.5-7.7,2.2-11,5.2c-7.5,0.4-16.2-0.5-23.5,1.6l-1.9,3.2
	c-5.9,1-8.9,7-12.3,11.2c6.3-5.4,10.2-7.7,18-10.4l4,3.3c-2,1.4-4.3,2-6.8,1.6c2,0.7,3.9,1.1,6,1.3l-2.3,2.8
	c1.6,1.5,3.4,2.9,5.3,4.1c0,0,2,1.6,3.6,2l2.6-0.9l1.6,2l1.7,0.6c-2.6,1-5.4,1.6-7.9,2.6c-1.1-0.1-2.3-0.1-3.4,0.2
	c-1,1.8-2.3,3.3-3.9,4.5l-1.5-1.3l0.3-3.2l5.2-3.1l0.4,1.1l2.6-1.1l-5.1,0.1l1.4-1.9l-0.5-0.9c-2.5,1.7-5.3,3-8.3,3.4
	c0.1,0.7,0,1.3-0.1,2c-1.4,0.8-8.7,3-9.3,3.4c-0.6,2.4-1.9,4.6-3.6,6.3l3.5,1.6L514,223l-0.7-1c-2.9,1.8-10.1,4.4-10.1,4.4
	c0.1,1,0.2,1.9,0.3,2.9c-0.9,1.4-1.9,2.7-2.9,3.9c-0.7-0.9-1.3-1.7-2-2.6c0,0,0.6,2.9,1.8,4.6c-0.8,1.8-1.9,3.5-3.2,5l0.1-9.5
	l-2,1.3l2.8,13.8l-4.5,2.1l2.5,0.7c-2.4,0.8-8.8,4.9-8.8,4.9c-2.8,4.8-7.8,5.2-7.9,11.5c-0.1,5,2.9,10.1,4.2,15l-1.6,5.3
	c-0.9-0.3-6.6-7.2-7.5-9l0.1-5.5c-1.5-0.9-9.1-2.8-9.1-2.8s-6.8-2.3-8.8-3c-2,0.5-3.3,5.6-3.3,5.6c-1.3-0.8-9.8-1.8-9.8-1.8
	c-3.2-0.4-13.5,3.8-16.1,3.6l-2.6,2.6l0.5,6.8c-2.8,4.6-1.6,10.6-1.6,15.8c3.8,5.8,5.7,9.4,12.6,11.5c2.5-0.6,4.9-1.3,7.4-2
	c2.7-4.7,4.8-9.1,10.9-9.4l4.7,2.6l-2.1,2.6c0.1,1.9-0.1,3.9-0.6,5.8l-1-1.8l-0.8,1.9c0.6,2.1,0.6,4.2,0,6.3l-1.6,1.5
	c5.2,1.4,10.6-0.3,15.7,1l0.2,1.4l2.6,2.9c-2.1,4.1-1.2,8.5-1,12.9c2,1.9,3.8,3.7,5.3,6c3.3-0.6,6.6-1.1,9.9-1.9l4,1.2l2.5,3.9
	c0,0,0.9,0.1,2.9-0.2l-1.3,1.8c0.1,2.5-0.3,4.8-1.2,7.1l2.7,1.6c0,0,3-7.1,4.8-8.2l-1.9-1.2c3.4,0.5,6.1,2.6,8.7,5
	c3.6-0.3,7.3,0,10.7,1l5.5-1.9l4,2.9c0.9,0.8,2,1.4,3.1,1.8l-3.2,2.8c3.7,0.4,6.7,0.2,9.6,2.6l1.3,4.1c4.9,3.7,12.7,3.2,18.5,4
	c1.8,1.8,3.8,3.5,5.9,4.8c0.5,3.4,2,6.7,4.2,9.3c-2.4,3.2-5.6,5.2-7.3,8.9l3.9-1.2l5.6,2.3l-0.4,1.7c1.5-1.2,2.8-2.6,3.9-4.2
	c4-0.4,7.9,0.5,11.5,2.2l0.7,4.7c6.3-1.1,10.8-0.8,17.2,0c4.7,3.8,8.1,6.1,13.7,8.3l-1,13.7c-1.4,1.8-3.1,3.2-5.1,4.2
	c-0.7,2.2-1.7,4.3-3,6.2l-2.3-0.3c-1.7,5.4-0.5,11.3-1.5,16.9c-1.1,5.7-9.1,18.8-9.1,18.8c-4.1,0.6-8-0.7-11.2,2.6
	c-4.5,0.6-7.6,4.3-11.4,6.7c-0.3,3.4-0.2,6.8-0.1,10.2c-4.1,3.7-5.1,8.9-9.1,12.7l2.8-5.5l-2-0.2l-0.7,2.8
	c-4.2,3.7-5.4,9.7-9.4,13.9c-4.7,1.1-9.7,0.3-13.8-2.1l0.4,2.3l2.3,1.4c0.4,2.4,1.3,4.7,2.6,6.8c-1.2,1.7-2.3,3.5-3.3,5.3
	c-4.7,1.9-10.1,3.1-15.1,2.1c-0.2,2.6-0.2,4.9-0.2,7.6c-3.1,1.1-6.3,1.3-9.3,0.1c0.2,2,0.6,4.1,1,6.1l3.6-0.2l-0.6,2.1l-3.8,2
	c-0.9,2.1-1.5,4.2-1.6,6.5l-5.8,2.5l0.9,5.7l4.1,2.9c-5.7,8.5-8.6,10.2-9,21.2l-3.3-0.4c-1,1.2,13.5,7.9,11.6,9l-20-2.7
	c0,0-7-11.2-8-12.3l-0.9-13.8c0.2-1.3,0.8-2.3,1.8-3.1l-5-1.9l3.7-3.2c0,0,6.1-8.2,6.4-14.6c-0.7-0.9-4-3-4-3l-0.6-4.3l1.9-3
	c-0.7-3.1-0.6-6.2-1.3-9.3c0,0,5.1-10,6.9-14.2l-0.4-1.7l0.9-2.2c-0.7-3.6-1.5-7.2,0.7-10.5c-1.7-5.7,2.9-13.2,2.6-19.4
	c-0.3-6.5,0.5-13.4,0.5-20.1c-7.1-7.3-15.4-10-20.6-19c-4.5-7.7-8-19.6-16.3-23.9l1.5-0.4c-0.4-1.8-0.8-3.7-1.1-5.6l3.3-2.6l1.4-4.2
	l-1.8,1.6l-1.9-1.3c0.4-1.5,0.3-2.9-0.2-4.3l2.1-1.2c0.7-1.7,1.2-3.5,1.8-5.2c1.6-0.6,4.5-5.1,4.5-5.1l4.6-4.7
	c-0.8-4.5-1.3-8.9-2-13.3l1.9-0.7l-1.2-2.3c0,0,4.2-2.5,6.4-4l0.4-2.3l3.3-0.9l1.2-2.1h3.1l1.2-3.7l-0.5-1.1c-1.7-1-7.6,0.8-7.6,0.8
	l1.1,2.8l-2.8,0.7l-1-2.2c-2-0.8-4.1-0.9-6.2-0.4l-9.3-7.2c-0.1-3.6-2.3-6.1-5.2-8.2c-0.2-1.2-0.7-2.3-1.7-3.1
	c-10.1-1.5-14.5-3.9-22.8-9.7l-6.8,1.8c-10.6-3.1-20.5-7.7-29.2-14.4c2.1-9-6.5-10.9-9-18c-1.5-0.9-15.5-17.2-16.8-22.1l-6-2.4
	l-0.4,2.4c1.6,3.7,3.6,8.1,7,10.3c1,6.6,8.7,12.2,11.3,18.2h-2.2c-2.3-1.8-4.5-3.8-6.6-5.8c0.2-1.4,0-2.7-0.6-3.9
	c-2.8-2.7-6-4.6-9.3-6.7l1.9-3.9c-5.9-3.1-8.5-12.3-11.2-18.1c-2.7-1.5-5.7-2.6-8.7-3.1c-1.4-4.5-5.5-7.7-6.4-12.5l-0.1-0.1
	l-4.1-4.3c-1.1-5.3-2-10.8-2.9-16.2l1.7-2.5c-0.1-3.7,0.1-7.3,1.2-10.9l-2.8-7l6.1-0.3l0.3,2.9c1.8-3.3,0.6-7.1-1.6-9.9
	c-2-0.1-9.8-5.4-12-6.1l-4-3.6l0.8-2.7c-1-2.2-5.7-5.1-5.7-5.1c-1.6-1.2-9.4-10.7-9.4-10.7l-0.3-3.5c-3.8-2.7-4.3-7.4-8.4-9.7
	l-1.5,1c-1.6-1.3-3.4-2.1-5.3-2.6l1.8,2l-3.2,0.1c-2.3-2.3-20.6-8-23.8-7.9l-13.5-4.8c-0.1,1.7,0,3.3,0.3,5
	c-4.4-0.2-7.9,2.8-11.7,4.6c0.5-3.3,5.1-10.9,5.1-10.9c-5.4,2.6-8.1,7-13,10.1l2.2,2.7c-2.9,3.5-10.6,8.6-10.6,8.6
	c-3.3,0.6-6.4,2.4-8.5,5l-4.2-0.8c8.1-3.8,7-6.4,11.3-13.1c-2-0.1-4-0.1-6,0l0.2,1.4c-3.4-1.5-7-2.4-10.7-2.6l-0.1-3.9
	c-2.4-0.9-4.8-1-7.3-0.4l-2.2-2.3l0.9-2l3.8,0.6c-2.1-1.5-4.6-2.4-7.1-3l-1.8-2.6c0,0,4.5-5.6,6.8-7.7l3.2,1
	c1.5-1.6,7.6-4.8,7.6-4.8l-1.3-3.1l1.6-1.3l-3.3-0.5l-4.1,2.1c-3.5-1.2-7-0.9-10.7-1l-1.1-2.8l3.1-0.6l-8.3-2.4
	c4.9-1.9,9.6-3.5,14.7-4.7l0.7,2.2c4,0.8,7.2-1.4,11.2-1l0.5-1.3c-1.9-0.3-3.7-0.7-5.6-1l-5.7-2.5c-3-3.2-7.4-4.8-11.3-6.9l1.7-2
	c2.5-0.6,4.9-1.2,7.4-1.7c2.1-3.8,13.3-8.3,13.3-8.3l-0.3-2.6c14.9-2.7,69.3,8.8,82.9,12.8l-1.2-2l16.4-6.7l3.6,0.3
	c-3.5,2.6-8.3,5.3-12.4,6.6c0.6,1.3,5.8-1,5.8-1c4.7-1.3,11.5-8.9,11.5-8.9c3.2,2.9,6.6,5.5,10.2,7.9v-2.8l3.6,2.6l1.6-0.4l2.3-2.3
	c8.7,0.8,23.1,3.6,30.1,8.8l-2.6,0.3l-2.2,2.1c6.5,1.1,11,0.9,17.5-0.1c2.4,1.3,5.1,2.1,7.5,3.3l-1.1,1.3l2.9,3l1.5-2.1l-2-5
	c2.6-0.7,5-1.7,7.3-2.9c8.1,2.7,15.6,4.4,24,2.3l1.6,1.3l2.5-1l-4.3-1.6l1.8-1.2c2,0.4,3.9,1.3,5.6,2.4v3.7l3.1,1.5l-0.5-5.3
	c2.6-0.9,4.7-2.5,6.5-4.6l-3.6-0.6l2.1-1.8l3.2,1.2v-3.2c-3.7-0.2-7-1.9-10.7-2.8c-0.2-1.7-0.6-3.3-1.1-4.9l0.8-2.9l2.9,0.1
	l-1.1-2.8L439.9,77.5z M497.6,242.4L497.6,242.4L497.6,242.4L497.6,242.4z M497.6,242.2L497.6,242.2L497.6,242.2L497.6,242.2z
	 M870.1,418.3l2.4-5.2c-1.9-3.7-1.6-7.8-0.3-11.6l0.8-0.9c1.4-0.3,2.8-0.7,4.2-1.4l1.7,0.3l2.6-2l0.7-1.8l1.5-0.4
	c0.1-1.3,0.2-2.6,0.2-3.9l1.4,0.9l1.6-1.7l0.4-2.9l3.5,2.3c0.4,2.9,0.9,5.7,1.5,8.5l-2.2-1c0.7,10.5-5.4,22.7-8.4,32.7l-5.4,2.8
	C867.8,432.8,869.4,424,870.1,418.3L870.1,418.3L870.1,418.3z M1084.8,352.7c6.2-0.4,7.4,5.5,12.4,7.5l12.3,11c0,0,5.6,7.3,6.5,7.5
	c2.3,3.2,1,7.5,0.7,11.2c-1.4,0-3.4,0.1-3.4,0.1c-5.1-4.3-9.9-8.2-13.6-13.7c-3.8-5.6-9.9-12.3-12.4-18.2c-3-1-5.2-3.5-5.5-6.7
	C1082.7,351.8,1083.7,352.3,1084.8,352.7L1084.8,352.7z M1116.4,392.7l0.7-0.9l3.9-1.5c2.1,0.7,4,1.8,5.7,3.1
	c4.2,0,8.5-0.8,12.5,0.7l0.7,1.6c1.7,0.8,3.6,1.2,5.5,1.1l0.2,2.8c-4-2.1-16.5-4.2-20.8-3c-1.9-0.9-3.9-1.4-6-1.4l0.7-1l-4.7-1.2
	C1115.3,392.7,1115.9,392.7,1116.4,392.7L1116.4,392.7z M1159.7,229.6l1.2-1.4l1.8,1l1.6-0.1c-0.4,3.3-0.1,7.1-2.9,9.6
	c-0.1-0.8-0.4-1.5-0.8-2.2l-1.1,1.5c-0.4-1.7,0-3.4,1.1-4.7c-1.2-1.1-2.5-2.1-3.9-2.9C1157.7,230.1,1158.7,229.8,1159.7,229.6
	L1159.7,229.6z M1170.7,229.4l-3.5,2.1l-1-2c1.8-1.1,3.6-2.2,5.5-3.1l2.6,0.9l-0.9,2.2L1170.7,229.4L1170.7,229.4L1170.7,229.4z
	 M1150.6,355.8l6.3,2.1l-1.9,0.4l0.2,1.2c1.1,0.8,1.8,1.8,2.3,3.1l-0.4,1.3l3.5,3.3l-4,0.6l-0.6,5.5l-4.5,3.1c0,2.2-0.7,4.3-1.8,6.2
	l-3.6,0.7c-1.2-1.3-2.7-2.2-4.4-2.7c-1.5,0.8-3.1,1.3-4.7,1.6l-0.5-2.8l-5,0.8l-0.5-4.7l-2.5-2.7l0.7-0.5c-0.7-1.6-1.4-3.3-2.1-4.9
	l2.1-3.8c0.7,1.5,1.7,2.6,3.1,3.5c4.9,0.4,8.9-2.3,13.8-2C1147.3,361.8,1149.4,359.1,1150.6,355.8L1150.6,355.8L1150.6,355.8z
	 M1183.1,217.1c2.6-1.1,4.9-2.9,6.8-5c1-3.7,2-7.3,3-10.9l2.4-0.2l-0.2-1.9l1.6-0.5c0.8,3.1,1.1,6.3,1.5,9.5c-1,1.5-1.9,3.1-2.7,4.7
	l0.3,2.6l-1.6,3.5l1,1.9l-1,0.6c-0.4,1.2-1.2,2.1-2.3,2.6l0.4-2.7c-1.7,0.8-2.9,2-3.6,3.7l-1.2-1.3l-2.8,1.4l-2.2-0.9
	c-1.4,1.7-2.7,3.5-4.1,5.2l-2.2-3.4c-3.1-1.2-6.6-0.3-9.8,0.1l-0.7,1.7l-2.7-0.4l-0.3-1.3c3.6-3.8,10.6-5.9,15.6-4.7
	c1.3-2.7,3-5.3,5.2-7.4L1183.1,217.1L1183.1,217.1L1183.1,217.1z M1210.7,191.3l-3.7,0.9l-3.4,3.4c-3.3-1.6-6.8-0.8-10.2-0.8
	l3.1,2.1c-1.3,0.4-2.5,1-3.5,2c-0.1-1.2-0.5-2.3-1.2-3.4c1-1.4,1.7-2.9,2.1-4.5l3-1.3l1.4-2.6l-0.3-3.1l1.3-1.7c2,2.4,4.5,4.4,7.2,6
	l4-1.5l-0.7,2.2L1210.7,191.3L1210.7,191.3L1210.7,191.3z M1258.7,397.7l1,2.5l2.9,0.5l0.4,1.5l1.5,0.4l-0.6,0.9l3.1,2.6
	c-6.8-2.1-10.8-3.6-15.7-8.9c-2.4-0.6-4.8-1.1-7.2-1.5l0.4,1.5l-1.1,0.8h-4l3.6,2.3c-2.5,1.2-5.4,1.4-8.1,0.9l-3.3-3.5l-3.4,0.3
	l0.6-1.5l-1.6-2.5l1.2-0.4c-1.6-1.4-2.8-3.1-3.7-5.1c-4.1-1.7-8.4-3.2-12.5-4.8l-1.5-2.9l-2.1,3.3c-1-1.7-2.2-3.3-3.6-4.7
	c2.3,0.5,4.4-0.1,6.1-1.8l-5.5,0.3l-1.1-1.9l-2.8-0.8l0.5-1.8c2-0.9,4.1-1.2,6.3-1l3.4,2.4l1.2,5.3l0.4-0.9l4,1.4l1.7-2.5l1.8-0.2
	l1.1-1.4c8.2-1.2,17,5,24.8,6.9c0.9,1.3,2,2.3,3.4,3l1.1,2.7l6.2,3.7l-2.6,1.5L1258.7,397.7L1258.7,397.7L1258.7,397.7z
	 M1139.4,461.7l3.3,1.6l0.4-2.4l-2.6-4.3c1-2.7,1.7-5.6,2.1-8.5l1.2,1.3c1.5-2.7,4.5-4.5,7-6.4c7.2-0.7,15.5-5.3,19.7-11l-0.7-1.8
	l2.2-3.1l2.7-1.2c0,0,4.3-3.4,6.3-4.3c0.5-1.2,1.2-2.4,2-3.4c0.9,0,1.7-0.2,2.5-0.7l4.3,1.9l1.6,1.6c1.4,0.1,2.7,0.1,4.1,0.2
	l0.6-0.9l-1.1-1.5l1.4-2.4l1.8-1l1.1-2.8l1.4-0.9c2,0.2,3.8-0.2,5.6-1.1c-0.9-0.5-1.7-1.2-2.2-2.1c3.8,1.5,9.4,3.6,13.3,2.4
	c0,0,2.1,0.7,2.8,0.7l0.9,1.1c-1,1.2-2.1,2.3-3.2,3.4c-0.1,1.6-0.6,3-1.6,4.2c3.6,2.7,8.1,5.6,12.5,6.5c1.3,2.2,3.2,3,5.6,2.4
	c3.7-4.9,1.4-12,5.1-15.9l-1.4-0.4c1.3-1.6,2.4-3.4,3.2-5.3c2.4,3.6,3.5,7.2,4.5,11.5c1.1-0.1,2.2,0.2,3.1,0.8
	c2.5,3.4,2.6,7.5,5,10.9c-0.3,1.4-0.2,2.7,0.4,3.9l3.3,1.9l0.5,0.9c1.7,0.7,3.4,1.7,4.8,3l-0.1,1.6c1.4,1.9,2.6,4,3.7,6.1l0.6-0.7
	l1.8,0.6l0.6,3.9c3.1,2.8,6.1,5.7,7.4,9.8c-0.1,1.5-0.3,2.9-0.7,4.4l0.8,1.1c0.6,6.2-0.6,12.4-3.4,17.9c-5.4,3.9-8.8,13.1-10,19.4
	l-6.7,1c-1.3,1.4-3,2.4-4.8,3c0.4,0.4,0.5,0.9,0.4,1.4c-1.3-0.6-2.3-1.7-2.9-3.1l-2.2-0.1l0.3-2.1c-1.4,1.5-3.1,2.7-5.1,3.4
	c-4-2.4-8.7-2.6-11.7-6.8l-0.8-5.1l-1.9-2h-2.1l0.9-2l-1.7-3.1l-1.3,3.4c-0.9-0.1-1.7,0-2.5,0.4l2-2.5c0.4-2.6,0.7-5.1,1.1-7.7
	c-1.4,3.1-6,8.8-6,8.8l-2.8-1.7v-2.3c-0.9-0.6-3.7-4.1-3.7-4.1l-2.1-3c-10.9-0.8-26.5-2.2-33.3,9l-1.4-0.5l-1.8,0.7
	c-2.5-0.5-5-0.1-7.5,0.6c-2.3,2.2-4.8,4-7.6,5.5c-3.3,0.2-6.5-0.4-9.2-2.3c0.1-2.9,0.6-5.7,1.2-8.5
	C1146.8,476.6,1143.6,469.6,1139.4,461.7L1139.4,461.7L1139.4,461.7z M1247.6,517.7l0.1-2.9l5.2,2.2c1.8-0.3,3.5-0.6,5.3-0.9
	l1.1,4.3c-1,1.7-1.5,3.6-1.6,5.6l-0.5-1l-2.7,2.6l-2.5-0.3l-0.3-1.4l-1.2-0.6C1249.4,522.7,1248.9,520.2,1247.6,517.7L1247.6,517.7
	L1247.6,517.7z"/>
<line class="st1" x1="1046.2" y1="101.3" x2="1004.3" y2="143.3"/>
<line class="st1" x1="1071.8" y1="341" x2="1029.9" y2="383"/>
<line class="st1" x1="1207" y1="150.5" x2="1165.1" y2="192.5"/>
<line class="st1" x1="1232" y1="180" x2="1190.1" y2="222"/>
<line class="st1" x1="770" y1="214.6" x2="728" y2="172.7"/>
<line class="st1" x1="357.5" y1="313.7" x2="357.5" y2="254.4"/>
<line class="st1" x1="1150.5" y1="217.2" x2="1150.5" y2="157.8"/>
<line class="st1" x1="1176.3" y1="228.5" x2="1235.6" y2="228.5"/>
<line class="st1" x1="1022.5" y1="310.5" x2="1081.8" y2="310.4"/>
<line class="st1" x1="1104.4" y1="359.6" x2="1104.4" y2="270"/>
<line class="st1" x1="719.5" y1="152.2" x2="677.5" y2="110.3"/>
<line class="st1" x1="341.5" y1="238.4" x2="299.6" y2="280.4"/>
<line class="st1" x1="781.7" y1="111" x2="739.8" y2="153"/>
<line class="st1" x1="1131.2" y1="245.4" x2="1182.5" y2="275"/>
<line class="st1" x1="1073.3" y1="237.3" x2="1132.6" y2="237.2"/>
<line class="st1" x1="1038.3" y1="269.2" x2="1097.6" y2="269.2"/>
<g>
	<g>
		<path class="st2" d="M1119.4,106h-73.3c-2.3,0-4.1-1.8-4.1-4.1V86.1c0-2.3,1.8-4.1,4.1-4.1h73.3c2.3,0,4.1,1.8,4.1,4.1v15.8
			C1123.5,104.2,1121.7,106,1119.4,106z"/>
	</g>
	<g class="st3">
		<path class="st4" d="M1052.9,91.9h1.9c-0.3-0.5-0.6-1-0.9-1.4l0.6-0.4c0.3,0.3,0.6,0.8,1,1.3l-0.7,0.5h1.5
			c0.4-0.6,0.8-1.2,1.2-1.8l0.8,0.5c-0.4,0.5-0.7,0.9-1.1,1.3h1.8v0.8h-6.2L1052.9,91.9L1052.9,91.9z M1054.1,95.4l0.8,0.4
			c-0.4,0.9-0.8,1.7-1.3,2.4c-0.2-0.1-0.5-0.3-0.8-0.4C1053.3,97.2,1053.7,96.4,1054.1,95.4z M1053.2,94.1h2.4V93h0.8v1.1h2.3v0.8
			h-2.3V98c0,0.8-0.4,1.2-1.2,1.2c-0.3,0-0.7,0-1.1,0c0-0.3-0.1-0.6-0.1-0.9c0.5,0,0.8,0.1,1.1,0.1c0.4,0,0.6-0.2,0.6-0.6v-2.9h-2.4
			v-0.8H1053.2z M1053.3,89.2h2.5c-0.2-0.3-0.4-0.7-0.6-1l0.8-0.4c0.2,0.4,0.5,0.8,0.7,1.2l-0.4,0.2h2.5V90h-5.5V89.2z M1057.5,95.5
			c0.4,0.6,0.8,1.1,1.1,1.6l-0.8,0.5c-0.3-0.6-0.7-1.2-1.1-1.7L1057.5,95.5z M1059.5,88.9c1.6,0,3.1-0.2,4.5-0.5l0.3,0.9
			c-1.5,0.2-2.9,0.3-3.9,0.4v2.7h4.3v0.8h-1.7v6.2h-0.9v-6.1h-1.7v0.6c0,2.4-0.6,4.3-1.7,5.6c-0.2-0.2-0.4-0.5-0.6-0.8
			c1-1.1,1.5-2.7,1.5-4.9L1059.5,88.9L1059.5,88.9z"/>
		<path class="st4" d="M1065.1,88.7h11.4v0.8h-3.8v1.7h3.3v8.2h-0.9v-0.7h-8.3v0.7h-0.9v-8.2h3.2c0-0.6,0-1.1,0-1.7h-3.9
			L1065.1,88.7L1065.1,88.7z M1075.1,97.9v-2h-2.2c-0.8,0-1.1-0.4-1.1-1.3v-2.5h-1.9c-0.1,1.8-0.8,3.3-2.3,4.3
			c-0.2-0.2-0.4-0.5-0.7-0.8c1.3-0.8,1.9-2,2-3.6h-2.2v5.8L1075.1,97.9L1075.1,97.9z M1069.9,91.2h1.8v-1.7h-1.8
			C1069.9,90.1,1069.9,90.7,1069.9,91.2z M1073.2,95h1.8v-2.9h-2.4v2.3C1072.7,94.8,1072.9,95,1073.2,95z"/>
		<path class="st4" d="M1076.8,93.8c1.1-1.6,1.9-3.5,2.6-5.8l1,0.3c-0.3,0.9-0.6,1.7-0.9,2.5v8.6h-0.9v-6.7c-0.4,0.8-0.8,1.4-1.3,2
			C1077.1,94.4,1077,94.1,1076.8,93.8z M1081.3,89.7h1.9c0.3-0.7,0.5-1.3,0.7-1.9l1,0.3c-0.2,0.6-0.5,1.1-0.7,1.6h3.7v9.5h-1v-1
			h-4.7v1h-1v-9.5H1081.3z M1086.9,90.6h-4.7v2.9h4.7V90.6z M1082.2,97.4h4.7v-3h-4.7V97.4z"/>
		<path class="st4" d="M1088.9,96.5c1-1.1,1.9-2.6,2.6-4.2h-2.6v-0.9h2.8v-1.8c-0.8,0.1-1.6,0.2-2.4,0.2c-0.1-0.3-0.1-0.6-0.2-0.9
			c1.9-0.1,3.8-0.3,5.7-0.6l0.2,0.9c-0.8,0.1-1.6,0.2-2.5,0.3v1.9h2.7v0.9h-2.7v1.6l0.5-0.5c0.7,0.6,1.5,1.3,2.2,2l-0.7,0.7
			c-0.5-0.6-1.1-1.2-2-2.1v5.4h-0.9v-5.9c-0.7,1.5-1.5,2.8-2.4,4C1089.1,97,1089,96.7,1088.9,96.5z M1096.2,89.3h0.9v7.4h-0.9V89.3z
			 M1099,88.1h0.9v9.8c0,1-0.5,1.5-1.5,1.5c-0.3,0-0.8,0-1.6,0c0-0.3-0.1-0.7-0.2-1.1c0.6,0.1,1.1,0.1,1.4,0.1
			c0.6,0,0.9-0.3,0.9-0.9L1099,88.1L1099,88.1z"/>
		<path class="st4" d="M1100.9,97.8h3.8v-8.2h-3.3v-0.9h10.7v0.9h-3.4v8.2h3.8v0.9h-11.6V97.8z M1102.4,90.9
			c0.7,1.6,1.3,3.1,1.8,4.6l-1,0.4c-0.5-1.6-1.1-3.2-1.7-4.7L1102.4,90.9z M1105.7,97.8h2.1v-8.2h-2.1V97.8z M1109.2,95.7
			c0.6-1.3,1.3-2.8,1.9-4.7l0.9,0.4c-0.7,1.9-1.4,3.5-2,4.7L1109.2,95.7z"/>
	</g>
</g>
<g>
	<g>
		<path class="st2" d="M1021.9,322.4h-58.3c-1.9,0-4.4-1.8-4.4-4.1v-15.8c0-2.3,2.5-4.1,4.4-4.1h58.3c1.9,0,4.4,1.8,4.4,4.1v15.8
			C1026.2,320.6,1023.8,322.4,1021.9,322.4z"/>
	</g>
	<g class="st3">
		<path class="st4" d="M969.4,309.6h1.9v-2.3H969v-0.8h2.3v-2h0.8v2h2.3v0.8h-2.3v2.3h1.8v4.7h-3.6v1h-0.8v-5.7H969.4z M973,313.4
			v-3h-2.8v3H973z M973.7,316c-0.2-0.3-0.4-0.5-0.7-0.7c0.8-0.9,1.4-1.7,1.6-2.5c0.3-0.8,0.4-2,0.4-3.7V305h4.9v9.5
			c0,0.9-0.4,1.3-1.3,1.3c-0.5,0-1.2,0-2,0c0-0.3-0.1-0.6-0.2-1c0.8,0,1.4,0.1,1.9,0.1s0.8-0.2,0.8-0.7V312h-3.3
			C975.6,313.3,974.9,314.7,973.7,316z M975.8,311.1h3.2v-2.3h-3.2C975.9,309.9,975.9,310.6,975.8,311.1z M979.1,305.7h-3.2v2.3h3.2
			V305.7z"/>
		<path class="st4" d="M982.1,311.1l0.9,0.3c-0.3,1.2-0.6,2.2-1,3.1c-0.3-0.1-0.6-0.2-0.9-0.3C981.5,313.2,981.8,312.2,982.1,311.1z
			 M982,309.2h4.3v-2.3h-5.1v-0.8h5.1v-1.9h1v1.9h5.2v0.8h-5.2v2.3h4.3v0.8H982V309.2z M983.8,311.3h0.9v2.7c0,0.5,0.2,0.7,0.7,0.7
			h2.5c0.6,0,0.9-0.2,1-0.6s0.2-0.8,0.2-1.4c0.3,0.1,0.6,0.2,0.9,0.3c-0.1,0.6-0.2,1.1-0.3,1.4c-0.2,0.8-0.7,1.1-1.6,1.1h-2.9
			c-1,0-1.4-0.5-1.4-1.5L983.8,311.3L983.8,311.3z M985.6,310.8l0.7-0.5c0.6,0.7,1.1,1.4,1.7,2.2l-0.8,0.5
			C986.7,312.2,986.1,311.5,985.6,310.8z M990.1,311.6l0.7-0.5c0.6,0.8,1.1,1.6,1.7,2.5l-0.8,0.6
			C991.1,313.2,990.6,312.3,990.1,311.6z"/>
		<path class="st4" d="M993.6,305.3h3.7v8h-2.8v0.9h-0.9V305.3z M996.4,306.1h-1.9v2.7h1.9V306.1z M996.4,312.4v-2.8h-1.9v2.8H996.4
			z M997.1,315.9c-0.2-0.2-0.5-0.5-0.8-0.7c1-0.9,1.6-1.7,1.9-2.5c0.3-0.8,0.4-2,0.4-3.7v-4.1h5.1v9.5c0,0.9-0.4,1.4-1.3,1.4
			c-0.6,0-1.2,0-2,0c0-0.3-0.1-0.6-0.2-1c0.8,0,1.4,0.1,1.9,0.1s0.7-0.2,0.7-0.7v-2.3h-3.5C999.2,313.3,998.5,314.7,997.1,315.9z
			 M999.6,311h3.4v-2.2h-3.3C999.6,309.6,999.6,310.4,999.6,311z M1002.9,305.8h-3.3v2.2h3.3V305.8z"/>
		<path class="st4" d="M1007,314.6h-0.9v-6.1h4.2v-1.6h-5.2V306h5.5c-0.2-0.5-0.5-1-0.8-1.5l0.9-0.4c0.3,0.5,0.6,1,0.9,1.5l-0.8,0.4
			h5.7v0.9h-5.2v1.6h4.3v4.4c0,1-0.5,1.5-1.4,1.5c-0.4,0-1,0-1.7,0c0-0.3-0.1-0.6-0.2-0.9c0.6,0,1.2,0.1,1.6,0.1
			c0.5,0,0.8-0.3,0.8-0.8v-3.3h-3.3v6.4h-0.9v-6.4h-3.5V314.6z"/>
	</g>
</g>
<g>
	<g>
		<path class="st2" d="M1028.3,404.5h-46.7c-1.6,0-4.7-1.8-4.7-4.1v-15.8c0-2.3,3.1-4.1,4.7-4.1h46.7c1.6,0,4.7,1.8,4.7,4.1v15.8
			C1033,402.7,1029.9,404.5,1028.3,404.5z"/>
	</g>
	<g class="st3">
		<path class="st4" d="M987.2,390.4h1.9c-0.3-0.5-0.6-1-0.9-1.4l0.6-0.4c0.3,0.3,0.6,0.8,1,1.3l-0.7,0.5h1.5
			c0.4-0.6,0.8-1.2,1.2-1.8l0.8,0.5c-0.4,0.5-0.7,0.9-1.1,1.3h1.8v0.8h-6.2v-0.8H987.2z M988.4,393.9l0.8,0.4
			c-0.4,0.9-0.8,1.7-1.3,2.4c-0.2-0.1-0.5-0.3-0.8-0.4C987.5,395.7,988,394.9,988.4,393.9z M987.5,392.6h2.4v-1.1h0.8v1.1h2.3v0.8
			h-2.3v3.1c0,0.8-0.4,1.2-1.2,1.2c-0.3,0-0.7,0-1.1,0c0-0.3-0.1-0.6-0.1-0.9c0.5,0,0.8,0.1,1.1,0.1c0.4,0,0.6-0.2,0.6-0.6v-2.9
			h-2.4L987.5,392.6L987.5,392.6z M987.5,387.7h2.5c-0.2-0.3-0.4-0.7-0.6-1l0.8-0.4c0.2,0.4,0.5,0.8,0.7,1.2l-0.4,0.2h2.5v0.8h-5.5
			V387.7z M991.8,394c0.4,0.6,0.8,1.1,1.1,1.6l-0.8,0.5c-0.3-0.6-0.7-1.2-1.1-1.7L991.8,394z M993.7,387.4c1.6,0,3.1-0.2,4.5-0.5
			l0.3,0.9c-1.5,0.2-2.9,0.3-3.9,0.4v2.7h4.3v0.8h-1.7v6.1h-0.9v-6.1h-1.7v0.6c0,2.4-0.6,4.3-1.7,5.6c-0.2-0.2-0.4-0.5-0.6-0.8
			c1-1.1,1.5-2.7,1.5-4.9L993.7,387.4L993.7,387.4z"/>
		<path class="st4" d="M999.4,388.5h1.6c0-0.6,0-1.3,0-2.1h0.9c0,0.8,0,1.5,0,2.1h2.7c0,3-0.1,5.4-0.2,7.1c0,1.4-0.6,2.1-1.6,2
			c-0.3,0-0.8,0-1.3,0c-0.1-0.3-0.1-0.7-0.2-1c0.5,0.1,1,0.1,1.3,0.1c0.5,0,0.8-0.4,0.9-1.1c0.1-1.9,0.1-3.9,0.2-6.1h-1.7
			c0,0.6,0,1.1,0,1.5c0,3.1-0.8,5.4-2.2,7.1c-0.2-0.2-0.4-0.5-0.7-0.8c1.3-1.4,2-3.5,2-6.4c0-0.4,0-0.9,0-1.4h-1.6L999.4,388.5
			L999.4,388.5z M1005.9,388h4.5v9.7h-0.9v-1.3h-2.6v1.2h-0.9L1005.9,388L1005.9,388z M1009.4,388.8h-2.6v6.8h2.6V388.8z"/>
		<path class="st4" d="M1011.1,395.1c0.6-0.2,1.2-0.4,1.7-0.6v-4.2h-1.5v-0.9h1.5v-3h0.9v3h1.5v0.8h-1.5v3.8c0.5-0.2,1-0.4,1.5-0.6
			c0,0.4,0,0.7,0.1,1c-0.8,0.3-2,0.8-3.8,1.5L1011.1,395.1z M1015.6,388h3.1v-1.5h0.8v1.5h2.9v0.8l-0.2,1.6
			c-0.3-0.1-0.7-0.1-0.9-0.1l0.2-1.5h-2v2.2h2.3v0.8c-0.4,1.4-1.1,2.6-2,3.6c0.8,0.7,1.8,1.2,3,1.6c-0.3,0.3-0.5,0.6-0.7,0.9
			c-1.2-0.5-2.2-1.1-3-1.8c-0.8,0.8-1.9,1.4-3,1.8c-0.1-0.2-0.3-0.5-0.6-0.8c1.2-0.4,2.2-0.9,3-1.6c-0.8-1-1.4-2.2-1.7-3.6h-0.4v0.3
			c0,2.6-0.6,4.4-1.9,5.7c-0.2-0.3-0.4-0.5-0.6-0.8c1.1-1.1,1.6-2.7,1.6-4.8V388H1015.6z M1016.5,391.1h2.2v-2.2h-2.2V391.1z
			 M1019.3,394.9c0.8-0.8,1.3-1.8,1.7-3h-3.2C1018.1,393.1,1018.5,394.1,1019.3,394.9z"/>
	</g>
</g>
<g>
	<g>
		<path class="st2" d="M380.8,331h-46.7c-1.6,0-4.7-1.8-4.7-4.1v-15.8c0-2.3,3.1-4.1,4.7-4.1h46.7c1.6,0,4.7,1.8,4.7,4.1v15.8
			C385.5,329.2,382.4,331,380.8,331z"/>
	</g>
	<g class="st3">
		<path class="st4" d="M340.3,316.2c0.7,0.5,1.4,1.1,2,1.6c-0.2,0.3-0.5,0.5-0.7,0.7c-0.8-0.8-1.5-1.3-2-1.7L340.3,316.2z
			 M341.4,319.5c0.4,0.2,0.7,0.3,0.9,0.4c-0.3,1.2-0.7,2.7-1.3,4.5l-1-0.4C340.6,322.7,341.1,321.2,341.4,319.5z M340.8,313.1
			c0.8,0.5,1.5,1.1,2.2,1.7c-0.3,0.3-0.5,0.5-0.7,0.7c-0.7-0.6-1.4-1.2-2.1-1.7L340.8,313.1z M342.6,316.7c1-1.2,1.8-2.5,2.3-3.9
			l0.9,0.3c-0.2,0.4-0.3,0.7-0.5,1h5v0.8c-0.5,1-1.3,1.9-2.4,2.7c1,0.5,2.1,0.9,3.5,1.1c-0.2,0.3-0.3,0.6-0.5,0.9
			c-1.5-0.3-2.7-0.8-3.8-1.4c-1.1,0.6-2.5,1.2-4.1,1.6c-0.1-0.3-0.3-0.6-0.5-0.9c1.4-0.3,2.7-0.7,3.7-1.3c-0.7-0.6-1.3-1.3-1.8-2.1
			c-0.4,0.7-0.8,1.3-1.3,1.8C343,317.1,342.8,316.9,342.6,316.7z M343.8,319.9h6.4v4.6h-0.9v-0.7h-4.6v0.7h-0.9V319.9z M349.3,320.7
			h-4.6v2.2h4.6V320.7z M349.3,314.9H345c0.5,0.9,1.2,1.6,2,2.2C348,316.5,348.7,315.8,349.3,314.9z"/>
		<path class="st4" d="M351.7,320.3c0.9-1.2,1.5-2.6,1.9-4.2h-1.8v-0.8h1.9V313h0.9v2.3h1.9v0.8h-1.9v1.6l0.5-0.4
			c0.6,0.5,1.1,1.1,1.6,1.6l-0.7,0.6c-0.5-0.6-1-1.2-1.4-1.6v6.5h-0.9v-6.5c-0.5,1.4-1,2.5-1.6,3.4
			C351.9,321,351.8,320.6,351.7,320.3z M363.3,319.9c-1.9,2-4.2,3.5-7,4.5c-0.1-0.2-0.4-0.5-0.6-0.8c2.8-1,5.1-2.4,6.9-4.3
			L363.3,319.9z M362.4,316.7c-1.4,1.4-3.1,2.7-5.2,3.8c-0.2-0.3-0.5-0.6-0.7-0.8c2-1,3.7-2.3,5.1-3.7L362.4,316.7z M362,313.5
			c-1.1,1.1-2.6,2.2-4.5,3.3c-0.3-0.3-0.5-0.6-0.7-0.8c1.6-0.8,3.1-1.9,4.4-3.2L362,313.5z"/>
		<path class="st4" d="M363.9,313.9h4.4v0.8h-1.9c-0.2,0.8-0.4,1.6-0.7,2.3h2v5.4h-2.2v0.9h-0.8v-4.1c-0.2,0.3-0.4,0.6-0.6,0.9
			c-0.2-0.3-0.4-0.5-0.6-0.7c0.9-1.4,1.6-2.9,1.9-4.7h-1.7v-0.8H363.9z M367,321.7v-3.8h-1.4v3.8H367z M370.1,314.6v3.4
			c0.1,3-0.6,5.1-2.2,6.5c-0.3-0.3-0.5-0.5-0.8-0.7c1.5-1.1,2.2-3,2.1-5.8v-4.3h4.2v8.9c0,0.3,0.1,0.5,0.4,0.5h0.1
			c0.2,0,0.4-0.2,0.4-0.5c0.1-0.5,0.1-1.1,0.1-2c0.3,0.1,0.6,0.3,0.9,0.4c-0.1,1.1-0.2,1.8-0.2,2.1c-0.1,0.6-0.6,1-1.2,1h-0.4
			c-0.7,0-1-0.4-1-1.2v-8.2L370.1,314.6L370.1,314.6z"/>
	</g>
</g>
<g>
	<g>
		<path class="st2" d="M305.2,294h-46.7c-1.6,0-4.7-1.8-4.7-4.1v-15.8c0-2.3,3.1-4.1,4.7-4.1h46.7c1.6,0,4.7,1.8,4.7,4.1v15.8
			C309.8,292.2,306.8,294,305.2,294z"/>
	</g>
	<g class="st3">
		<path class="st4" d="M264.9,277.4v-0.8h9.4v0.8c-1,1.1-2.1,2-3.4,2.7c0.8,0.4,2.4,0.8,4.8,1.2c-0.2,0.3-0.3,0.6-0.5,0.9
			c-2.1-0.4-3.9-0.9-5.3-1.6c-1.6,0.8-3.4,1.3-5.4,1.7c-0.1-0.3-0.3-0.6-0.5-0.9c1.9-0.3,3.5-0.8,4.9-1.4c-1.1-0.7-2.1-1.6-3-2.7
			L264.9,277.4L264.9,277.4z M264.2,285.9h5.2v-2.1h-4.1V283h4.1v-1.5h0.9v1.5h4.1v0.8h-4.1v2.1h5.2v0.8h-11.3V285.9z M273,277.4h-6
			c0.8,0.9,1.8,1.6,2.9,2.2C271.1,279,272.1,278.3,273,277.4z"/>
		<path class="st4" d="M275.9,281.6c1.1-1.7,2-3.6,2.6-5.7l0.9,0.3c-0.3,0.9-0.6,1.8-0.9,2.5v8.7h-0.9v-6.8c-0.4,0.7-0.8,1.4-1.2,2
			C276.2,282.3,276.1,281.9,275.9,281.6z M279.8,276.7h7.9v0.9h-1v7.9c0,1.2-0.5,1.7-1.6,1.7c-0.4,0-1,0-1.9,0c0-0.3-0.1-0.6-0.2-1
			c0.7,0.1,1.3,0.1,1.8,0.1c0.6,0,0.9-0.3,0.9-1v-7.8h-5.9C279.8,277.5,279.8,276.7,279.8,276.7z M280.1,279.3h4v4.7H281v0.6h-0.8
			v-5.3H280.1z M283.3,280.1H281v3h2.3V280.1z"/>
		<path class="st4" d="M288.3,282h3.3v-0.9h-2.5v-0.7h2.5v-0.8h-2.8v-0.7h2.8v-0.8h0.8v0.8h2.6v-0.8h0.8v0.8h2.9v0.7H296v0.8h2.6
			v0.7H296v0.9h3.4v0.7h-3.2c0.9,0.8,2.1,1.4,3.5,1.7c-0.2,0.3-0.4,0.6-0.6,0.9c-1.6-0.5-2.9-1.4-3.9-2.6h-2.7c-1,1.1-2.3,2-3.9,2.7
			c-0.1-0.2-0.3-0.5-0.6-0.8c1.2-0.4,2.3-1.1,3.3-1.9h-3C288.3,282.7,288.3,282,288.3,282z M288.5,277h4.9c-0.2-0.3-0.3-0.5-0.5-0.8
			l0.8-0.4c0.3,0.4,0.5,0.8,0.7,1.2h4.7v1.7h-0.9v-1h-8.9v1h-0.9V277H288.5z M289,286.1h4.4V285h-2.5v-0.8h2.5v-1.1h0.8v1.1h2.3v0.8
			h-2.3v1.1h4.4v0.8H289V286.1z M292.5,280.5h2.6v-0.8h-2.6V280.5z M292.5,282h2.6v-0.9h-2.6V282z"/>
	</g>
</g>
<g>
	<g>
		<path class="st2" d="M1253.8,154.4h-46.7c-1.6,0-4.7-1.8-4.7-4.1v-15.8c0-2.3,3.1-4.1,4.7-4.1h46.7c1.6,0,4.7,1.8,4.7,4.1v15.8
			C1258.5,152.6,1255.4,154.4,1253.8,154.4z"/>
	</g>
	<g class="st3">
		<path class="st4" d="M1212.6,140.2l0.6-0.7c0.7,0.5,1.4,1,2,1.5c-0.3,0.3-0.5,0.6-0.7,0.8C1213.8,141.1,1213.2,140.6,1212.6,140.2
			z M1213,147.5c0.5-1.4,0.9-2.9,1.2-4.5c0.3,0.1,0.7,0.3,0.9,0.4c-0.4,1.5-0.8,3-1.1,4.4L1213,147.5z M1213.1,137.1l0.6-0.6
			c0.5,0.4,1.1,0.9,2,1.6c-0.3,0.3-0.5,0.5-0.7,0.7C1214.1,137.9,1213.5,137.4,1213.1,137.1z M1215.1,139.6c1-0.9,1.8-2,2.3-3.4h1
			c-0.2,0.4-0.4,0.8-0.6,1.2h6.2v0.8h-6.7c-0.5,0.8-1.1,1.5-1.7,2.1C1215.5,140.1,1215.3,139.8,1215.1,139.6z M1215.2,142.2h1.2
			l0.4-2.9h6.3c0,1.1,0,2.1-0.1,2.9h1.2v0.8h-1.3c0,0.8,0,1.6-0.1,2.2h1v0.8h-1c-0.1,0.6-0.2,1-0.5,1.3s-0.8,0.5-1.5,0.5
			c-0.4,0-0.9,0-1.6,0c0-0.3-0.1-0.6-0.2-0.9c0.8,0.1,1.3,0.1,1.7,0.1c0.6,0,0.9-0.3,1.1-0.9h-6v-0.9l0.3-2.1h-1.1v-0.9H1215.2z
			 M1222.2,143h-5l-0.3,2.2h5.2C1222.1,144.5,1222.2,143.8,1222.2,143z M1222.3,140h-4.6l-0.3,2.1h4.9
			C1222.2,141.5,1222.2,140.8,1222.3,140z M1218.6,143.7l0.5-0.5c0.5,0.4,1,0.8,1.5,1.2l-0.6,0.6
			C1219.6,144.5,1219.1,144.1,1218.6,143.7z M1218.8,140.7l0.5-0.5c0.5,0.4,1,0.8,1.5,1.2l-0.6,0.6
			C1219.7,141.5,1219.2,141.1,1218.8,140.7z"/>
		<path class="st4" d="M1224.9,140.3h3.7c0.2-0.3,0.5-0.6,0.7-0.9c-0.7,0-1.4,0.1-2.1,0.1c-0.2,0-0.5,0.1-0.9,0.1l-0.3-0.9
			c0.4-0.1,0.8-0.3,1.1-0.5c0.7-0.5,1.4-1.2,2.3-2l0.9,0.5c-0.9,0.8-1.7,1.4-2.6,2c1.5,0,3.1-0.1,5-0.2c-0.4-0.3-0.8-0.6-1.2-0.9
			l0.6-0.6c1.2,0.8,2.2,1.6,2.9,2.2l-0.7,0.7c-0.3-0.2-0.5-0.4-0.8-0.7c-1.3,0.1-2.7,0.1-4,0.2l0.7,0.3c-0.2,0.2-0.3,0.4-0.5,0.6
			h6.2v0.8h-3.4c1,1,2.2,1.7,3.7,2.2c-0.3,0.4-0.5,0.6-0.6,0.9c-1.7-0.7-3.1-1.8-4.1-3.1h-2.6c-1.1,1.2-2.4,2.3-3.9,3
			c-0.2-0.3-0.4-0.5-0.6-0.7c1.3-0.6,2.4-1.4,3.3-2.3h-3v-0.8H1224.9z M1233.8,144.4l0.6,0.6c-2.2,1.5-4.9,2.5-8.1,3
			c-0.1-0.3-0.3-0.5-0.4-0.8C1229.1,146.6,1231.7,145.7,1233.8,144.4z M1232.4,143.1l0.6,0.7c-2.1,1.2-4.3,2-6.4,2.4
			c-0.2-0.4-0.3-0.6-0.4-0.8C1228.4,144.9,1230.5,144.2,1232.4,143.1z M1231.1,141.7l0.6,0.6c-1.5,0.9-3,1.6-4.6,2.1
			c-0.1-0.3-0.3-0.5-0.4-0.8C1228.1,143.2,1229.6,142.6,1231.1,141.7z"/>
		<path class="st4" d="M1242.8,147.1c0.7-0.6,1.4-1.3,2-2.1c-0.3-1.1-0.6-2.5-0.7-4.1h-5.3v0.9c0,1.6-0.1,2.7-0.3,3.6
			c-0.3,0.9-0.7,1.7-1.3,2.5c-0.1-0.3-0.3-0.5-0.5-0.8c0.5-0.7,0.9-1.4,1-2.1c0.2-0.7,0.3-1.7,0.3-3.1V140h6.1c0-0.3,0-0.6,0-0.9
			h0.8c0,0.3,0,0.6,0,0.9h1.5c-0.3-0.3-0.6-0.5-0.9-0.7l0.5-0.5h-8.1v-2.1h0.8v1.3h3.5v-1.8h0.9v1.8h3.5v-1.3h0.8v2.1h-1.4
			c0.4,0.3,0.8,0.5,1.1,0.8l-0.3,0.4h1.1v0.8h-3c0.1,1.3,0.2,2.4,0.4,3.3c0.5-0.8,0.9-1.7,1.3-2.7l0.8,0.4c-0.5,1.3-1.1,2.4-1.7,3.3
			c0.3,0.7,0.6,1.2,1,1.5c0.3,0.2,0.5,0.1,0.6-0.3c0.1-0.4,0.1-0.9,0.2-1.6c0.3,0.1,0.6,0.2,0.8,0.3c-0.1,0.7-0.1,1.3-0.2,1.7
			c-0.1,0.7-0.4,1-0.9,1c-0.4,0-0.7-0.2-1.1-0.5s-0.7-0.8-0.9-1.3c-0.5,0.7-1.1,1.3-1.8,1.8C1243.2,147.5,1243,147.3,1242.8,147.1z
			 M1239.4,144.9c0.2-0.3,0.3-0.6,0.5-0.9h-0.8v-0.7h1.2c0.1-0.3,0.3-0.6,0.4-0.9h-1.5v-0.7h4.4v0.7h-2.8l0.7,0.2
			c-0.1,0.2-0.3,0.5-0.4,0.7h2.3v0.7c-0.3,0.6-0.6,1.1-1,1.5c0.3,0.1,0.5,0.3,0.8,0.4l-0.4,0.8c-0.3-0.2-0.7-0.4-1-0.6
			c-0.7,0.6-1.6,1-2.7,1.3c-0.2-0.2-0.3-0.5-0.6-0.8c1-0.2,1.8-0.5,2.5-0.9C1240.5,145.4,1240,145.2,1239.4,144.9z M1242.6,144.1
			h-1.9c-0.1,0.2-0.2,0.4-0.3,0.6c0.4,0.2,0.9,0.4,1.3,0.6C1242,144.9,1242.3,144.5,1242.6,144.1z"/>
	</g>
</g>
<g>
	<g>
		<path class="st2" d="M1122.2,380.1h-35.9c-1.2,0-3.6-1.8-3.6-4.1v-15.8c0-2.3,2.4-4.1,3.6-4.1h35.9c1.2,0,3.6,1.8,3.6,4.1V376
			C1125.8,378.3,1123.4,380.1,1122.2,380.1z"/>
	</g>
	<g class="st3">
		<path class="st4" d="M1092.9,364.7h5v-1.3c-1.4,0.1-2.6,0.1-3.8,0.1c0-0.3-0.1-0.5-0.2-0.8c2.4,0,5.3-0.1,8.6-0.4l0.1,0.8
			c-1.4,0.1-2.7,0.2-3.9,0.2v1.3h5.1v0.8h-4.3c1.2,0.9,2.8,1.7,4.7,2.1c-0.2,0.3-0.4,0.6-0.5,0.8c-2-0.7-3.6-1.6-4.9-2.7v2h-0.8v-2
			c-1.1,1.1-2.7,2-4.9,2.9c-0.1-0.2-0.3-0.5-0.6-0.8c1.9-0.5,3.4-1.3,4.6-2.3h-4.2L1092.9,364.7L1092.9,364.7z M1094.5,368h7.7v5.4
			h-0.8v-0.5h-6v0.5h-0.8V368H1094.5z M1101.3,368.8h-6v1.3h6V368.8z M1095.3,372.2h6v-1.3h-6V372.2z"/>
		<path class="st4" d="M1105,365.1c0.7,0.5,1.4,1.1,2.1,1.7l-0.7,0.8c-0.9-0.8-1.6-1.4-2-1.7L1105,365.1z M1107.2,365.7h2.2v-1.5
			h-1.6v-0.8h1.6V362h0.9v1.4h2.3V362h0.9v1.4h1.9v0.8h-1.9v1.5h2.3v0.8h-2.3c0.7,1,1.5,1.9,2.6,2.5c-0.2,0.3-0.4,0.5-0.6,0.8
			c-0.7-0.5-1.3-1-1.8-1.7v3h-0.8v-0.3h-3.3v0.8c0,0.5,0.2,0.8,0.7,0.8h3.2c0.5,0,0.8-0.2,1-0.7c0.1-0.3,0.1-0.7,0.2-1.2
			c0.2,0.1,0.5,0.2,0.9,0.4c-0.1,0.5-0.2,0.8-0.3,1.1c-0.2,0.8-0.8,1.2-1.6,1.2h-3.5c-1,0-1.4-0.5-1.4-1.5v-3
			c-0.4,0.4-0.9,0.8-1.3,1.2c-0.2-0.2-0.3-0.5-0.6-0.8c-0.3,1.5-0.6,2.9-0.9,4.3l-1-0.3c0.4-1.2,0.7-2.9,1.1-4.8
			c0.3,0.2,0.6,0.3,0.9,0.4c0,0.1-0.1,0.3-0.1,0.4c1.1-0.7,2-1.6,2.6-2.7h-2.1v-0.7H1107.2z M1105.5,362.2c0.6,0.5,1.3,1.1,2,1.7
			l-0.7,0.7c-0.9-0.8-1.5-1.4-1.9-1.8L1105.5,362.2z M1109.4,367.9h4.1c-0.4-0.4-0.7-0.9-0.9-1.4h-2.3
			C1110,366.9,1109.7,367.4,1109.4,367.9z M1112.9,368.6h-3.3v1.4h3.3V368.6z M1110.3,365.7h2.3v-1.5h-2.3V365.7z"/>
	</g>
</g>
<g>
	<g>
		<path class="st2" d="M1271.4,240.5h-35.9c-1.2,0-3.6-1.8-3.6-4.1v-15.8c0-2.3,2.4-4.1,3.6-4.1h35.9c1.2,0,3.6,1.8,3.6,4.1v15.8
			C1275,238.7,1272.6,240.5,1271.4,240.5z"/>
	</g>
	<g class="st3">
		<path class="st4" d="M1241.6,233c3.2-1.4,5-3.6,5.2-6.5h-5v-0.9h5c0-1.1,0-2.1,0-3.2h1c0,1.1,0,2.1,0,3.2h5.2v0.9h-5.2
			c0.6,3.1,2.4,5.2,5.5,6.2c-0.4,0.4-0.7,0.7-0.9,0.9c-2.5-1-4.2-2.8-5-5.5c-0.6,2.4-2.3,4.3-5.1,5.7
			C1242.2,233.7,1242,233.4,1241.6,233z"/>
		<path class="st4" d="M1257.7,229.4c0.2,1.5-0.2,2.3-1.1,2.5c-0.4,0.1-0.7,0.1-1.2,0c-0.1-0.3-0.1-0.6-0.3-1
			c0.4,0.1,0.8,0.1,1.1,0.1c0.5-0.1,0.7-0.7,0.5-1.7c-0.1-0.6-0.5-1.3-1.1-2.1c0.3-0.9,0.6-2,1.1-3.4h-1.7v10.3h-0.9V223h3.6v0.8
			c-0.4,1.1-0.8,2.2-1.1,3.3C1257.3,227.9,1257.6,228.7,1257.7,229.4z M1258.4,223.4c1.9,0,4.1-0.2,6.4-0.5l0.3,0.9
			c-2.2,0.2-4.2,0.4-5.9,0.4v1.9h5.4v0.7c-0.4,1.7-1,3.1-1.9,4.3c0.8,0.8,1.6,1.4,2.6,1.8c-0.3,0.4-0.6,0.6-0.7,0.9
			c-0.8-0.5-1.6-1.2-2.4-2.1c-0.8,0.8-1.8,1.5-3.1,2.2c-0.2-0.2-0.4-0.5-0.6-0.8c1.3-0.6,2.4-1.3,3.1-2c-0.9-1.1-1.4-2.5-1.7-4.3
			h-0.7v2c0,2.1-0.6,3.8-1.9,5.1c-0.2-0.3-0.4-0.5-0.6-0.8c1.1-0.9,1.7-2.4,1.7-4.4L1258.4,223.4L1258.4,223.4z M1263.7,226.9h-3
			c0.2,1.5,0.7,2.7,1.5,3.6C1262.9,229.5,1263.4,228.3,1263.7,226.9z"/>
	</g>
</g>
<g>
	<g>
		<path class="st2" d="M1265.9,185.2H1230c-1.2,0-3.6-1.8-3.6-4.1v-15.8c0-2.3,2.4-4.1,3.6-4.1h35.9c1.2,0,3.6,1.8,3.6,4.1v15.8
			C1269.5,183.4,1267.1,185.2,1265.9,185.2z"/>
	</g>
	<g class="st3">
		<path class="st4" d="M1239,174.2l0.8,0.6c-0.9,1-1.9,2.1-3,3.2c-0.2-0.2-0.4-0.4-0.7-0.7C1237.1,176.4,1238.1,175.4,1239,174.2z
			 M1237.3,173.5v-0.9l1.3-3.1h-2.3v-0.9h2.7l0.7-1.6l1,0.2l-0.6,1.4h7.5v0.9h-7.9l-1.4,3.1h3.5V170h1v2.6h4.2v0.9h-4.2v3.5
			c0,1-0.5,1.5-1.5,1.5c-0.5,0-1.1,0-1.8,0c0-0.3-0.1-0.7-0.2-1.1c0.5,0.1,1.1,0.1,1.7,0.1c0.5,0,0.8-0.3,0.8-0.8v-3.1L1237.3,173.5
			L1237.3,173.5z M1244,175l0.7-0.6c1.1,0.9,2.2,1.8,3.2,2.8l-0.7,0.7C1246.1,176.9,1245,175.9,1244,175z"/>
		<path class="st4" d="M1251.3,175.1l0.6,0.7c-1,0.8-2.1,1.5-3.2,2.2c-0.1-0.3-0.3-0.5-0.5-0.8
			C1249.3,176.5,1250.3,175.8,1251.3,175.1z M1248.2,168.7h5.4c-0.2-0.4-0.5-0.8-0.8-1.3l0.9-0.4c0.3,0.5,0.6,1,0.9,1.5l-0.5,0.2
			h5.5v0.8h-11.5L1248.2,168.7L1248.2,168.7z M1249.8,170.6h8.4v4h-0.9v-0.5h-2.7v3c0,0.9-0.4,1.4-1.3,1.4c-0.6,0-1.1,0-1.5,0
			c-0.1-0.3-0.1-0.7-0.2-0.9c0.5,0,1,0.1,1.4,0.1c0.5,0,0.7-0.2,0.7-0.8v-2.7h-2.9v0.5h-0.9L1249.8,170.6L1249.8,170.6z
			 M1257.2,171.4h-6.6v1.9h6.6V171.4z M1255.8,175.9l0.6-0.7c1.1,0.6,2.1,1.3,3.1,1.9l-0.6,0.8C1258,177.3,1257,176.6,1255.8,175.9z
			"/>
	</g>
</g>
<g>
	<g>
		<path class="st2" d="M801.9,230.8H766c-1.2,0-3.6-1.8-3.6-4.1v-15.8c0-2.3,2.4-4.1,3.6-4.1h35.9c1.2,0,3.6,1.8,3.6,4.1v15.8
			C805.5,229,803.1,230.8,801.9,230.8z"/>
	</g>
	<g class="st3">
		<path class="st4" d="M773.2,213.6h9.4v5.7h-1v-0.8h-7.5v3.5c0,0.5,0.3,0.8,0.8,0.8h6.4c0.6,0,0.9-0.2,1-0.5c0.1-0.4,0.2-1,0.3-1.9
			c0.3,0.1,0.6,0.2,1,0.4c-0.1,0.9-0.3,1.6-0.4,1.9c-0.2,0.7-0.8,1-1.7,1h-6.9c-0.9,0-1.4-0.5-1.4-1.5L773.2,213.6L773.2,213.6z
			 M777.5,217.6v-3.1h-3.3v3.1H777.5z M778.4,217.6h3.3v-3.1h-3.3V217.6z"/>
		<path class="st4" d="M786.9,220.4l0.2-0.4c-0.8,0.4-1.6,0.7-2.4,1c-0.1-0.3-0.3-0.5-0.6-0.8c2.2-0.6,4.1-1.5,5.5-2.9h1.1l-0.2,0.2
			c1.4,1.1,3.2,1.9,5.4,2.4c-0.2,0.3-0.4,0.6-0.5,0.9c-1-0.3-1.8-0.6-2.6-1l0.3,0.5c-0.6,0.3-1.2,0.5-1.9,0.8
			c-0.1-0.2-0.2-0.4-0.4-0.7c0.5-0.2,1.1-0.4,1.7-0.7c-0.9-0.5-1.8-1-2.5-1.7c-0.7,0.6-1.5,1.2-2.4,1.7c0.5,0.2,1,0.4,1.6,0.7
			l-0.4,0.7C788.1,220.9,787.5,220.6,786.9,220.4z M784.2,217.9c1-0.6,1.7-1.2,2.3-2h-2v-0.7h2.3v-1.1c-0.6,0-1.3,0.1-1.9,0.1
			c0-0.3-0.1-0.5-0.2-0.8c1.6-0.1,3.1-0.2,4.5-0.4l0.2,0.8c-0.6,0.1-1.2,0.1-1.8,0.2v1.2h1.9v0.7h-1.9v0.7l0.3-0.4
			c0.7,0.3,1.2,0.6,1.6,0.9l-0.4,0.6c-0.5-0.3-1-0.6-1.4-0.9v1.7h-0.8v-1.9c-0.5,0.8-1.2,1.4-1.9,2
			C784.6,218.3,784.4,218.1,784.2,217.9z M789,221.4l0.3,0.7c-1.2,0.4-2.5,0.8-3.9,1.2c-0.1-0.2-0.2-0.5-0.3-0.8
			C786.3,222.3,787.6,221.9,789,221.4z M789.6,219.2h0.8v3.5c0,1-0.4,1.4-1.3,1.4c-0.5,0-0.9,0-1.4,0c0-0.3-0.1-0.6-0.1-0.9
			c0.5,0.1,0.9,0.1,1.3,0.1c0.5,0,0.8-0.2,0.8-0.7L789.6,219.2L789.6,219.2z M789.5,215.5c0.6-0.9,1.1-1.8,1.4-2.7l0.8,0.2
			c-0.1,0.3-0.2,0.6-0.4,0.9h3.7c0,1-0.1,1.9-0.1,2.7c0,0.6-0.2,1-0.4,1.2c-0.2,0.3-0.6,0.4-1.2,0.4c-0.3,0-0.7,0-1.1,0
			c0-0.3-0.1-0.6-0.2-0.8c0.5,0,0.9,0.1,1.2,0.1c0.5,0,0.8-0.3,0.8-0.9c0-0.6,0.1-1.2,0.1-1.8h-1.2c-0.3,1.2-0.9,2.2-1.9,2.9
			c-0.2-0.2-0.4-0.4-0.6-0.6c0.9-0.6,1.5-1.4,1.7-2.3H791c-0.3,0.5-0.6,1-0.9,1.4C789.9,215.8,789.7,215.6,789.5,215.5z
			 M790.7,222.1l0.3-0.7c1.2,0.4,2.5,0.8,3.7,1.3l-0.4,0.8C793.1,223,792,222.5,790.7,222.1z"/>
	</g>
</g>
<g>
	<g>
		<path class="st2" d="M682.9,118.8H647c-1.2,0-3.6-1.8-3.6-4.1V98.9c0-2.3,2.4-4.1,3.6-4.1h35.9c1.2,0,3.6,1.8,3.6,4.1v15.8
			C686.5,117,684.1,118.8,682.9,118.8z"/>
	</g>
	<g class="st3">
		<path class="st4" d="M653.1,106.3c1.1-1.5,2-3.4,2.7-5.6l1,0.4c-0.4,1-0.7,1.9-1.1,2.7v8.4h-0.9v-6.6c-0.4,0.7-0.8,1.3-1.2,1.8
			C653.4,106.9,653.2,106.5,653.1,106.3z M661.3,100.8l-0.2,0.3c0.9,1.6,2.2,2.8,3.7,3.5c-0.2,0.3-0.5,0.6-0.7,0.9
			c-1.5-1-2.7-2.2-3.6-3.6c-0.8,1.3-2,2.6-3.7,3.7c-0.2-0.3-0.4-0.5-0.7-0.8c1.8-1,3-2.4,3.9-4H661.3z M657.9,105.3h0.9v2.5
			c1.6-0.7,2.9-1.5,3.9-2.3l0.7,0.8c-1.4,1-2.9,1.9-4.5,2.6v1.3c0,0.5,0.3,0.8,0.9,0.8h2.2c0.4,0,0.6-0.1,0.8-0.2s0.3-0.3,0.3-0.7
			c0.1-0.5,0.1-1.1,0.2-1.7c0.3,0.1,0.6,0.2,0.9,0.3c-0.1,0.6-0.1,1.2-0.2,1.7c-0.1,0.5-0.3,0.9-0.6,1.1s-0.8,0.3-1.4,0.3h-2.3
			c-0.7,0-1.1-0.1-1.4-0.4s-0.4-0.7-0.4-1.3V105.3z"/>
		<path class="st4" d="M665.2,109.3c0.9,0,1.8-0.1,2.8-0.2v-0.5l1.3-0.9h-3.6V107h4.9v0.8l-1.8,1.2v0.2c0.8-0.1,1.6-0.1,2.5-0.2
			c0,0.2,0,0.4,0,0.8c-0.8,0.1-1.6,0.1-2.4,0.2v0.9c0,0.9-0.4,1.3-1.2,1.3c-0.5,0-0.9,0-1.3,0c0-0.3-0.1-0.6-0.1-0.9
			c0.4,0,0.9,0.1,1.3,0.1s0.5-0.2,0.5-0.6v-0.7c-0.9,0.1-1.8,0.1-2.7,0.2L665.2,109.3z M665.3,102.1h2.6c-0.2-0.4-0.4-0.7-0.6-1.1
			l0.8-0.3c0.3,0.4,0.5,0.9,0.8,1.4h2.4v0.7h-6L665.3,102.1L665.3,102.1z M665.9,103.6h4.5v2.8h-0.8v-0.3h-2.9v0.3h-0.8V103.6
			L665.9,103.6z M669.7,104.3h-2.9v1.1h2.9V104.3z M672.6,100.7l0.9,0.2c-0.2,0.7-0.4,1.3-0.6,1.9h3.7v0.8h-0.7
			c-0.3,2.5-0.8,4.3-1.7,5.6c0.7,0.9,1.6,1.6,2.7,2.1c-0.2,0.3-0.5,0.6-0.7,0.9c-1.1-0.6-1.9-1.4-2.6-2.3c-0.8,0.9-1.8,1.7-3.1,2.3
			c-0.2-0.3-0.4-0.6-0.7-0.8c1.3-0.5,2.4-1.3,3.2-2.3c-0.6-1.1-1-2.4-1.3-3.9c-0.2,0.4-0.4,0.8-0.7,1.1c-0.1-0.3-0.3-0.6-0.5-0.8
			C671.6,104.2,672.3,102.5,672.6,100.7z M672.4,104c0.2,1.7,0.6,3.1,1.2,4.3c0.7-1.1,1.1-2.7,1.3-4.7h-2.3
			C672.6,103.7,672.5,103.9,672.4,104z"/>
	</g>
</g>
<g>
	<g>
		<path class="st2" d="M1168.4,159.2h-35.9c-1.2,0-3.6-1.8-3.6-4.1v-15.8c0-2.3,2.4-4.1,3.6-4.1h35.9c1.2,0,3.6,1.8,3.6,4.1v15.8
			C1172,157.4,1169.6,159.2,1168.4,159.2z"/>
	</g>
	<g class="st3">
		<path class="st4" d="M1140.2,144.9h3.4c0.1-0.4,0.2-0.9,0.2-1.3h-5v-0.8h3.6c-0.3-0.5-0.6-0.9-0.9-1.3l0.7-0.5
			c0.5,0.5,0.9,1,1.2,1.4l-0.5,0.4h2.8c0.4-0.5,0.7-1.1,1.1-1.8l0.9,0.5c-0.3,0.4-0.7,0.8-1,1.3h3.6v0.8h-5.4
			c-0.1,0.4-0.2,0.8-0.3,1.3h4.4v7.8h-1V152h-6.9v0.7h-0.9V144.9L1140.2,144.9z M1148,145.7h-6.9v1.3h6.9V145.7z M1141.1,149.1h6.9
			v-1.3h-6.9V149.1z M1141.1,151.1h6.9v-1.3h-6.9V151.1z"/>
		<path class="st4" d="M1154.1,141.1l0.9,0.3c-0.2,0.4-0.4,0.9-0.7,1.3h7.7v0.9c-0.4,0.8-0.9,1.6-1.3,2.2c-0.2-0.1-0.5-0.3-0.9-0.4
			c0.4-0.6,0.8-1.2,1.1-1.8h-7.2c-0.7,1-1.5,2-2.4,2.9c-0.2-0.2-0.4-0.4-0.8-0.7C1152.2,144.3,1153.4,142.8,1154.1,141.1z
			 M1153.8,146.1l0.9,0.4c-0.9,1.8-1.9,3.4-3,4.8c-0.2-0.2-0.5-0.4-0.8-0.6C1152.1,149.3,1153,147.8,1153.8,146.1z M1156.2,144.2
			h0.9v6.8c0,1-0.5,1.5-1.5,1.5c-0.4,0-1,0-1.6,0c0-0.3-0.1-0.6-0.2-1c0.7,0.1,1.3,0.1,1.6,0.1c0.5,0,0.8-0.3,0.8-0.8V144.2z
			 M1158.4,146.6l0.8-0.5c1.1,1.5,2.1,3.1,3.1,4.5l-0.9,0.6C1160.4,149.6,1159.5,148.1,1158.4,146.6z"/>
	</g>
</g>
<g>
	<g>
		<path class="st2" d="M854.9,115.7h-73.3c-2.3,0-4.1-1.8-4.1-4.1V95.8c0-2.3,1.8-4.1,4.1-4.1h73.3c2.3,0,4.1,1.8,4.1,4.1v15.8
			C859,113.9,857.2,115.7,854.9,115.7z"/>
	</g>
	<g class="st3">
		<path class="st4" d="M792.4,104.6c0.2,1.5-0.1,2.3-1.1,2.5c-0.4,0.1-0.8,0.1-1.2,0c-0.1-0.3-0.1-0.6-0.3-0.9v3H789V98.3h3.4v0.8
			c-0.5,1.7-0.9,2.8-1,3.2C792,103.2,792.3,103.9,792.4,104.6z M791,106.2c0.5-0.1,0.7-0.6,0.5-1.7c-0.1-0.6-0.5-1.3-1.1-2.1
			c0.4-1.4,0.7-2.5,1-3.3h-1.5v7C790.3,106.2,790.7,106.3,791,106.2z M792.9,98.5h7.2v0.9H799v8c0,1.1-0.5,1.7-1.6,1.7
			c-0.4,0-1.1,0-1.8,0c0-0.3-0.1-0.6-0.2-1c0.8,0.1,1.3,0.1,1.8,0.1c0.6,0,0.9-0.3,0.9-0.9v-7.7h-5.3L792.9,98.5L792.9,98.5z
			 M793.2,101h3.6v4.9h-2.7v0.8h-0.8L793.2,101L793.2,101z M796,101.8h-1.9v3.3h1.9V101.8z"/>
		<path class="st4" d="M805,107.3l-0.7,0.7c-0.4-0.4-0.8-0.8-1.2-1.2c-0.5,0.8-1.2,1.5-2.1,2.2c-0.1-0.2-0.3-0.5-0.5-0.8
			c0.8-0.6,1.5-1.3,2-2c-0.5-0.4-1-0.9-1.5-1.3c0.3-1.3,0.5-2.7,0.7-4h-1V100h1.1c0.1-0.8,0.2-1.6,0.2-2.4l0.9,0.1
			c-0.1,0.8-0.2,1.5-0.3,2.3h2v0.9c-0.1,2.3-0.4,4-1,5.2C804,106.4,804.5,106.9,805,107.3z M802.8,105.4c0.5-1.2,0.8-2.7,0.8-4.6
			h-1.2c-0.2,1.4-0.4,2.6-0.6,3.8C802.2,104.9,802.5,105.1,802.8,105.4z M804.6,102.3h0.8l0.2-3.9h5.5c0,1.3,0,2.7-0.1,3.9h1v0.8h-1
			c0,1.1-0.1,2.1-0.1,3.1h0.9v0.8h-0.9c0,0.1,0,0.1,0,0.2c0,1.2-0.6,1.8-1.7,1.8c-0.5,0-1,0-1.6,0c0-0.3-0.1-0.7-0.2-1
			c0.6,0,1.1,0.1,1.6,0.1c0.6,0,0.9-0.3,0.9-1.1H805l0.2-3.9h-0.8v-0.8H804.6z M810.1,103.1h-3.9l-0.2,3.1h4
			C810,105.1,810.1,104.1,810.1,103.1z M810.2,99.1h-3.7l-0.2,3.1h3.8C810.1,101.2,810.2,100.2,810.2,99.1z M807.2,104l0.7-0.4
			c0.3,0.5,0.7,1.1,1,1.7l-0.8,0.4C807.9,105.1,807.6,104.6,807.2,104z M807.4,100.1l0.7-0.4c0.4,0.5,0.7,1.1,0.9,1.6l-0.8,0.4
			C808,101.2,807.7,100.6,807.4,100.1z"/>
		<path class="st4" d="M814.3,106.4l0.7,0.6c-0.7,0.9-1.4,1.6-2,2.2c-0.2-0.2-0.4-0.4-0.6-0.6C813.1,107.8,813.8,107.1,814.3,106.4z
			 M812.5,105.3h0.9v-5.4h-0.8v-0.8h0.8v-1.4h0.9v1.4h2.4v-1.4h0.9v1.4h0.9v0.8h-0.9v5.4h0.9v0.8h-6L812.5,105.3L812.5,105.3z
			 M814.3,101.2h2.4v-1.3h-2.4V101.2z M814.3,103.2h2.4v-1.3h-2.4V103.2z M814.3,105.3h2.4V104h-2.4V105.3z M815.9,106.8l0.6-0.5
			c0.5,0.4,0.9,0.9,1.4,1.4l-0.7,0.6C816.8,107.8,816.3,107.3,815.9,106.8z M819.1,98.7c1.7-0.2,3.1-0.4,4.3-0.7l0.4,0.9
			c-1.2,0.2-2.5,0.4-3.8,0.6v2.5h4.1v0.8h-1.3v6.4h-0.9v-6.4H820c0,2.7-0.5,4.8-1.4,6.3c-0.2-0.2-0.5-0.4-0.7-0.7
			c0.9-1.3,1.3-3.2,1.3-5.6L819.1,98.7L819.1,98.7z"/>
		<path class="st4" d="M824.4,104.6c0.7-0.2,1.5-0.5,2.2-0.7v-2.8h-0.9c-0.2,0.7-0.4,1.4-0.6,2c-0.2-0.2-0.5-0.3-0.8-0.5
			c0.4-1,0.7-2.3,0.9-3.9l0.8,0.1c-0.1,0.5-0.1,1-0.2,1.4h0.8v-2.6h0.9v2.6h1.5v0.8h-1.5v2.4c0.4-0.2,0.9-0.3,1.3-0.5
			c0,0.3,0.1,0.6,0.1,0.9c-0.5,0.2-0.9,0.3-1.4,0.5v4.7h-0.9v-4.3c-0.6,0.2-1.3,0.5-2,0.8L824.4,104.6z M828.5,101.7h3.2V100H829
			v-0.8h2.7v-1.6h0.9v1.6h2.8v0.8h-2.8v1.7h3.4v0.8h-7.5L828.5,101.7L828.5,101.7z M828.7,104.1h4.7v-1.2h0.9v1.2h1.7v0.8h-1.7v2.6
			c0,1-0.5,1.5-1.5,1.5c-0.4,0-0.9,0-1.6,0c0-0.3-0.1-0.6-0.2-1c0.6,0.1,1.1,0.1,1.6,0.1s0.7-0.3,0.7-0.8V105h-4.7L828.7,104.1
			L828.7,104.1z M829.4,105.7l0.7-0.5c0.6,0.6,1,1.2,1.5,1.7l-0.8,0.6C830.3,106.9,829.9,106.3,829.4,105.7z"/>
		<path class="st4" d="M836.4,103.2h2.1v-5.1h7.7v5.1h1.9v0.9h-1.9v3.5c0,0.9-0.5,1.4-1.4,1.4c-0.5,0-1.1,0-1.9,0
			c0-0.3-0.1-0.6-0.2-1c0.7,0.1,1.2,0.1,1.7,0.1s0.7-0.3,0.7-0.8v-3.2h-5.7c-0.2,2.3-0.8,4-1.8,5.2c-0.2-0.2-0.5-0.5-0.8-0.7
			c0.9-0.9,1.5-2.4,1.6-4.5h-2L836.4,103.2L836.4,103.2z M839.5,98.9v4.3h5.7v-4.3H839.5z M840.9,100.2l0.7-0.6
			c0.6,0.6,1.2,1.3,1.8,2l-0.8,0.7C842.2,101.7,841.6,101,840.9,100.2z"/>
	</g>
</g>
<g>
	<g>
		<path class="st2" d="M1241.3,295.9H1183c-1.9,0-4.4-1.8-4.4-4.1V276c0-2.3,2.5-4.1,4.4-4.1h58.3c1.9,0,4.4,1.8,4.4,4.1v15.8
			C1245.7,294.1,1243.2,295.9,1241.3,295.9z"/>
	</g>
	<g>
		<path class="st4" d="M1201.1,283.2v5.1c0,0.8,0,1.6,0.1,2.6h-1.2c0-0.9,0.1-1.8,0.1-2.6v-3.6c-0.5,0.7-1,1.3-1.4,1.8
			c-0.2-0.4-0.5-0.7-0.8-0.9c0.7-0.7,1.3-1.5,1.8-2.2c0.5-0.7,1-1.6,1.4-2.5c0.4,0.2,0.8,0.4,1.2,0.5
			C1201.9,281.7,1201.5,282.4,1201.1,283.2z M1199.2,281.8l-0.9-0.7c0.9-0.9,1.7-2.1,2.4-3.9c0.4,0.2,0.8,0.4,1.2,0.5
			C1201,279.2,1200.2,280.5,1199.2,281.8z M1203.1,289.9c-0.4-0.2-0.7-0.4-1.1-0.6c1-1.2,1.7-2.2,2.1-2.9c0.4,0.2,0.7,0.4,1.1,0.6
			C1204.6,287.7,1203.9,288.7,1203.1,289.9z M1207.5,278.1c0.5,1,1,1.8,1.6,2.4c0.6,0.6,1.4,1,2.6,1.4c-0.4,0.3-0.7,0.7-0.9,1.2
			c-0.8-0.5-1.3-0.9-1.7-1.2v0.8h-1.8v1.8h1.2c0.7,0,1.6,0,2.6-0.1v1.1c-1,0-1.9-0.1-2.5-0.1h-1.3v4c0,0.5-0.1,0.8-0.4,0.9
			c-0.3,0.2-0.9,0.3-1.8,0.5c-0.2-0.5-0.3-0.9-0.5-1.3c0.6,0,1,0,1.2-0.1c0.2-0.1,0.3-0.3,0.3-0.7v-3.4h-1.1c-0.8,0-1.6,0-2.6,0.1
			v-1.1c0.9,0,1.8,0.1,2.6,0.1h1v-1.8h-1.7v-0.6c-0.5,0.5-0.9,0.9-1.2,1.2c-0.3-0.3-0.7-0.6-1.2-0.9c0.9-0.5,1.7-1.1,2.3-2
			c0.6-0.8,1.2-1.9,1.7-3.3c0.7,0.2,1.2,0.3,1.6,0.4L1207.5,278.1z M1208.8,281.8c-0.5-0.5-1-1-1.3-1.5c-0.3-0.5-0.6-1-0.8-1.5
			c-0.4,0.6-0.7,1.1-1,1.6c-0.3,0.4-0.7,0.9-1.1,1.4H1208.8z M1211.3,289c-0.3,0.2-0.7,0.4-1.1,0.7c-0.6-0.9-1.2-1.8-1.8-2.7
			c0.4-0.3,0.6-0.5,0.9-0.6C1209.9,287.1,1210.6,288,1211.3,289z"/>
		<path class="st4" d="M1213.7,283.6c0.1-0.7,0.2-1.4,0.3-2.1c0.5,0,0.9,0.1,1.2,0.1c0,0.3-0.1,0.8-0.2,1.6
			c-0.1,0.7-0.3,1.6-0.5,2.7c-0.4-0.1-0.7-0.2-1.2-0.2C1213.4,284.9,1213.6,284.3,1213.7,283.6z M1217,280v4.2
			c0,1.1-0.2,2.2-0.5,3.3c-0.3,1.1-0.9,2.2-1.8,3.3c-0.4-0.3-0.8-0.4-1.2-0.5c0.5-0.5,1-1.2,1.6-2.2s0.8-2.3,0.8-3.8v-4.4
			c0-0.7,0-1.4-0.1-2.2h1.2C1217,278.6,1217,279.3,1217,280z M1219.5,284.9c-0.4,0.1-0.7,0.2-1.1,0.4c-0.2-1-0.6-2.1-1.1-3.3
			c0.2-0.1,0.5-0.3,1-0.4C1218.8,282.9,1219.2,284,1219.5,284.9z M1220.9,280.2v7.8c0,0.5,0,1.3,0.1,2.1h-1.2c0-0.9,0.1-1.6,0.1-2.1
			v-7.7c0-0.5,0-1.1-0.1-1.9h1.2C1221,279.1,1220.9,279.7,1220.9,280.2z M1223.8,284.8c-0.3,0.2-0.6,0.4-1,0.5
			c-0.3-0.9-0.7-2-1.4-3.3c0.3-0.2,0.6-0.3,0.9-0.5C1223,283,1223.5,284.1,1223.8,284.8z M1225.2,288.8c0,0.3,0,0.9,0.1,1.8h-1.2
			c0-0.7,0.1-1.3,0.1-1.8v-9.1c0-0.5,0-1.2-0.1-2.1h1.2c0,1-0.1,1.7-0.1,2.1V288.8z"/>
	</g>
</g>
<g>
	<g>
		<path class="st2" d="M1069.9,249.2h-58.3c-1.9,0-4.4-1.8-4.4-4.1v-15.8c0-2.3,2.5-4.1,4.4-4.1h58.3c1.9,0,4.4,1.8,4.4,4.1v15.8
			C1074.3,247.4,1071.8,249.2,1069.9,249.2z"/>
	</g>
	<g>
		<path class="st4" d="M1030.3,236c-0.3,0.3-0.5,0.6-0.7,1.1c-0.6-0.5-1.4-1-2.5-1.6c0.2-0.3,0.4-0.6,0.6-1
			C1028.7,235.1,1029.6,235.6,1030.3,236z M1028.1,240.8c0.3-0.8,0.6-1.7,0.8-2.5c0.4,0.3,0.8,0.5,1.2,0.6c-0.5,1.1-0.8,2-1.1,2.7
			s-0.4,1.4-0.5,1.9c-0.4-0.3-0.9-0.5-1.5-0.7C1027.5,242.4,1027.8,241.7,1028.1,240.8z M1030.5,232.4c-0.3,0.3-0.5,0.6-0.7,0.9
			c-0.6-0.5-1.4-1.2-2.3-1.8c0.2-0.3,0.4-0.6,0.6-0.9C1029.2,231.4,1030,232,1030.5,232.4z M1032.2,237v-2.6c-0.6,0-1.2,0-1.7,0.1
			v-1.1c0.5,0.1,1.1,0.1,1.7,0.1v-1.4c0-0.7,0-1.3-0.1-1.8h1.2c0,0.4-0.1,1-0.1,1.7v1.5c0.5,0,1,0,1.5-0.1v1.1
			c-0.6,0-1.1-0.1-1.5-0.1v2.2c0.5-0.2,1-0.3,1.5-0.5c0,0.3,0.1,0.6,0.2,1c-0.4,0.1-0.9,0.3-1.6,0.6v4c0,0.5-0.1,0.9-0.6,1.1
			c-0.4,0.2-1,0.4-1.7,0.4c0-0.4-0.2-0.8-0.5-1.3c0.6,0.1,1.1,0.1,1.3,0s0.4-0.3,0.4-0.7v-3.2c-1,0.4-1.6,0.6-1.8,0.8
			c-0.2-0.5-0.3-0.9-0.4-1.3C1030.3,237.5,1031,237.3,1032.2,237z M1038.8,231.6c-0.7,0.1-1.4,0.1-2.2,0.3v2.6h2.2
			c0.7,0,1.2,0,1.5-0.1v1.1c-0.5,0-0.9-0.1-1.1-0.1v5.7c0,0.6,0,1.4,0.1,2.2h-1.3c0-1.2,0.1-2.2,0.1-3v-5h-1.5c0,1.1,0,2-0.1,2.8
			c0,0.8-0.2,1.6-0.4,2.5c-0.3,0.9-0.6,1.7-1.1,2.5c-0.4-0.3-0.8-0.5-1.3-0.6c0.8-0.9,1.3-2,1.5-3.2s0.3-2.8,0.3-4.6
			c0-1.8-0.1-3.1-0.1-3.9c0.8-0.1,1.5-0.2,2.3-0.3c0.7-0.1,1.4-0.3,2.1-0.6c0.2,0.4,0.4,0.9,0.6,1.3
			C1040,231.5,1039.4,231.6,1038.8,231.6z M1045.2,235.6c-0.3,0.3-0.5,0.7-0.7,1.2c-0.8-0.6-1.7-1.1-2.6-1.5
			c0.2-0.4,0.4-0.8,0.6-1.1C1043.4,234.7,1044.3,235.1,1045.2,235.6z M1044.9,240.8c-0.5,1.1-0.8,2.1-1.1,2.9
			c-0.5-0.3-1-0.5-1.6-0.8c0.4-0.4,0.9-1.2,1.5-2.4c0.6-1.2,0.9-2.1,1.1-2.7c0.5,0.3,0.9,0.5,1.4,0.7
			C1045.8,238.9,1045.3,239.7,1044.9,240.8z M1046.1,232c-0.3,0.4-0.6,0.7-0.8,1.1c-0.8-0.7-1.6-1.3-2.3-1.7c0.2-0.2,0.4-0.6,0.6-1
			C1044.5,230.9,1045.3,231.5,1046.1,232z M1052.1,231.5c0.9,0,1.7,0,2.6-0.1v1.3c-0.9,0-1.7-0.1-2.5-0.1h-1v9h1.3
			c0.9,0,1.9,0,2.9-0.1v1.2c-1.1,0-2-0.1-2.9-0.1h-3.7c-0.9,0-1.9,0-3,0.1v-1.2c1.1,0,2.1,0.1,3,0.1h1.1v-9h-0.6
			c-0.9,0-1.8,0-2.7,0.1v-1.2c1,0,1.9,0.1,2.7,0.1H1052.1z"/>
	</g>
</g>
<g>
	<g>
		<path class="st2" d="M1035.8,281.2h-58.3c-1.9,0-4.4-1.8-4.4-4.1v-15.8c0-2.3,2.5-4.1,4.4-4.1h58.3c1.9,0,4.4,1.8,4.4,4.1v15.8
			C1040.2,279.4,1037.7,281.2,1035.8,281.2z"/>
	</g>
	<g class="st3">
		<path class="st4" d="M983.5,266.2c0.9,0.5,1.6,1.1,2.3,1.6c-0.1,0.1-0.3,0.4-0.6,0.8c-0.6-0.5-1.4-1.1-2.2-1.7L983.5,266.2z
			 M984.5,269.5c0.3,0.1,0.6,0.3,1,0.4c-0.4,1.3-0.8,2.8-1.4,4.5l-1-0.4C983.7,272.6,984.1,271.1,984.5,269.5z M983.9,263.3
			c0.9,0.6,1.6,1.2,2.3,1.7c-0.3,0.3-0.5,0.5-0.7,0.8c-0.9-0.7-1.6-1.3-2.2-1.8L983.9,263.3z M994.5,272.8c-0.2,0.3-0.4,0.6-0.7,0.8
			c-1.3-0.9-2.4-2-3.2-3.3v4.3h-0.9v-4.3c-0.9,1.4-2,2.5-3.5,3.5c-0.3-0.3-0.5-0.6-0.7-0.7c1.7-1,3-2.1,3.9-3.4h-3.3v-0.9h3.5v-1.5
			h0.9v1.5h3.6v0.9h-3.4C991.9,270.9,993.1,272,994.5,272.8z M989.1,265.4l0.6,0.6c-1,0.9-1.9,1.6-2.8,2.2c-0.2-0.3-0.4-0.5-0.6-0.8
			C987.4,266.9,988.3,266.2,989.1,265.4z M986.5,263.8h7.5v1.9h-0.9v-1.1h-5.7v1.1h-0.9L986.5,263.8L986.5,263.8z M990.7,266.1
			l0.6-0.6c1,0.7,1.9,1.4,2.8,2.1l-0.6,0.7C992.6,267.5,991.7,266.7,990.7,266.1z"/>
		<path class="st4" d="M994.9,271.1c0.5-0.1,1.1-0.3,1.7-0.4v-3.8H995V266h1.5v-2.8h0.9v2.8h1.4v0.9h-1.4v3.6c0.5-0.1,1-0.3,1.6-0.5
			c0,0.3,0,0.6,0,0.9c-1.4,0.4-2.7,0.8-4,1.2L994.9,271.1z M999.6,263.3h0.9v4.2c0,2-0.1,3.5-0.4,4.3c-0.2,0.9-0.9,1.8-1.9,2.9
			c-0.2-0.3-0.4-0.5-0.7-0.8c1-0.9,1.5-1.7,1.7-2.5c0.2-0.7,0.3-2,0.3-3.9v-4.2H999.6z M1002.2,263.7h0.9v9.8h-0.9V263.7z
			 M1004.9,263.3h0.9v11.1h-0.9V263.3z"/>
		<path class="st4" d="M1007.7,265.6h4.5V263h1v2.6h4.6v5.3h-1v-0.6h-3.6v4.4h-1v-4.4h-3.6v0.6h-1L1007.7,265.6L1007.7,265.6z
			 M1008.6,269.4h3.6v-3h-3.6V269.4z M1016.8,266.4h-3.6v3h3.6V266.4z"/>
		<path class="st4" d="M1020.1,268.7h1.4v-2.3h0.9v2.3h1.6v0.8h-1.6v1.6c0.6-0.1,1.2-0.2,1.8-0.3c0,0.3-0.1,0.6-0.1,0.8
			c-0.6,0.1-1.2,0.2-1.7,0.3v2.7h-0.9v-2.5c-0.9,0.1-1.7,0.3-2.5,0.4l-0.1-0.9c0.8-0.1,1.7-0.2,2.7-0.3v-1.7h-2.4v-0.8
			c0.4-0.9,0.8-1.9,1.2-3h-1.4V265h1.5c0.2-0.6,0.3-1.2,0.5-1.9l1,0.2c-0.2,0.6-0.4,1.1-0.5,1.7h2.5v0.8h-2.8
			C1020.8,266.7,1020.5,267.7,1020.1,268.7z M1024.6,271.9l0.5-0.7c0.6,0.4,1.3,0.8,1.9,1.2l1.8-2.1h-4v-0.8c0.1-0.5,0.3-1,0.4-1.5
			h-1.3v-0.8h1.6c0.1-0.5,0.3-1,0.4-1.5h-1.4v-0.8h1.6c0.1-0.6,0.3-1.2,0.4-1.8h0.9c-0.1,0.6-0.3,1.2-0.4,1.8h3.2v0.8h-3.3
			c-0.1,0.5-0.3,1-0.4,1.5h4.2v0.8h-4.4c-0.1,0.5-0.3,1-0.4,1.5h4.3v0.8l-2.2,2.5c0.5,0.3,0.9,0.6,1.4,0.9l-0.6,0.8
			C1027.2,273.7,1025.9,272.8,1024.6,271.9z"/>
	</g>
</g>
<g>
	<circle class="st2" cx="341.5" cy="238.4" r="6"/>
	<circle class="st5" cx="341.5" cy="238.4" r="0">
	
		<animate  fill="remove" to="12" begin="0.0" attributeName="r" additive="replace" calcMode="linear" repeatCount="indefinite" dur="2" restart="always" from="0" accumulate="none">
		</animate>
	
		<animate  fill="remove" begin="0.0" attributeName="opacity" additive="replace" calcMode="linear" repeatCount="indefinite" dur="2" values="0;0.1;0.65;0" restart="always" accumulate="none">
		</animate>
	</circle>
</g>
<g>
	<circle class="st2" cx="357.5" cy="254.4" r="6"/>
	<circle class="st5" cx="357.5" cy="254.4" r="0">
	
		<animate  fill="remove" to="12" begin="1.1" attributeName="r" additive="replace" calcMode="linear" repeatCount="indefinite" dur="2" restart="always" from="0" accumulate="none">
		</animate>
	
		<animate  fill="remove" begin="1.1" attributeName="opacity" additive="replace" calcMode="linear" repeatCount="indefinite" dur="2" values="0;0.1;0.65;0" restart="always" accumulate="none">
		</animate>
	</circle>
</g>
<g>
	<circle class="st2" cx="719.5" cy="152.2" r="6"/>
	<circle class="st5" cx="719.5" cy="152.2" r="0">
	
		<animate  fill="remove" to="12" begin="1.6" attributeName="r" additive="replace" calcMode="linear" repeatCount="indefinite" dur="2" restart="always" from="0" accumulate="none">
		</animate>
	
		<animate  fill="remove" begin="1.6" attributeName="opacity" additive="replace" calcMode="linear" repeatCount="indefinite" dur="2" values="0;0.1;0.65;0" restart="always" accumulate="none">
		</animate>
	</circle>
</g>
<g>
	<circle class="st2" cx="728" cy="172.7" r="6"/>
	<circle class="st5" cx="728" cy="172.7" r="0">
	
		<animate  fill="remove" to="12" begin="0.1" attributeName="r" additive="replace" calcMode="linear" repeatCount="indefinite" dur="2" restart="always" from="0" accumulate="none">
		</animate>
	
		<animate  fill="remove" begin="0.1" attributeName="opacity" additive="replace" calcMode="linear" repeatCount="indefinite" dur="2" values="0;0.1;0.65;0" restart="always" accumulate="none">
		</animate>
	</circle>
</g>
<g>
	<circle class="st2" cx="1004.3" cy="143.3" r="6"/>
	<circle class="st5" cx="1004.3" cy="143.3" r="0">
	
		<animate  fill="remove" to="12" begin="0.7" attributeName="r" additive="replace" calcMode="linear" repeatCount="indefinite" dur="2" restart="always" from="0" accumulate="none">
		</animate>
	
		<animate  fill="remove" begin="0.7" attributeName="opacity" additive="replace" calcMode="linear" repeatCount="indefinite" dur="2" values="0;0.1;0.65;0" restart="always" accumulate="none">
		</animate>
	</circle>
</g>
<g>
	<circle class="st2" cx="739.8" cy="153" r="6"/>
	<circle class="st5" cx="739.8" cy="153" r="0">
	
		<animate  fill="remove" to="12" begin="0.8" attributeName="r" additive="replace" calcMode="linear" repeatCount="indefinite" dur="2" restart="always" from="0" accumulate="none">
		</animate>
	
		<animate  fill="remove" begin="0.8" attributeName="opacity" additive="replace" calcMode="linear" repeatCount="indefinite" dur="2" values="0;0.1;0.65;0" restart="always" accumulate="none">
		</animate>
	</circle>
</g>
<g>
	<circle class="st2" cx="1164.9" cy="192.5" r="6"/>
	<circle class="st5" cx="1164.9" cy="192.5" r="0">
	
		<animate  fill="remove" to="12" begin="1.9" attributeName="r" additive="replace" calcMode="linear" repeatCount="indefinite" dur="2" restart="always" from="0" accumulate="none">
		</animate>
	
		<animate  fill="remove" begin="1.9" attributeName="opacity" additive="replace" calcMode="linear" repeatCount="indefinite" dur="2" values="0;0.1;0.65;0" restart="always" accumulate="none">
		</animate>
	</circle>
</g>
<g>
	<circle class="st2" cx="1150.5" cy="217" r="6"/>
	<circle class="st5" cx="1150.5" cy="217" r="0">
	
		<animate  fill="remove" to="12" begin="1.3" attributeName="r" additive="replace" calcMode="linear" repeatCount="indefinite" dur="2" restart="always" from="0" accumulate="none">
		</animate>
	
		<animate  fill="remove" begin="1.3" attributeName="opacity" additive="replace" calcMode="linear" repeatCount="indefinite" dur="2" values="0;0.1;0.65;0" restart="always" accumulate="none">
		</animate>
	</circle>
</g>
<g>
	<circle class="st2" cx="1175.1" cy="228.5" r="6"/>
	<circle class="st5" cx="1175.1" cy="228.5" r="0">
	
		<animate  fill="remove" to="12" begin="1.0" attributeName="r" additive="replace" calcMode="linear" repeatCount="indefinite" dur="2" restart="always" from="0" accumulate="none">
		</animate>
	
		<animate  fill="remove" begin="1.0" attributeName="opacity" additive="replace" calcMode="linear" repeatCount="indefinite" dur="2" values="0;0.1;0.65;0" restart="always" accumulate="none">
		</animate>
	</circle>
</g>
<g>
	<circle class="st2" cx="1190.1" cy="222" r="6"/>
	<circle class="st5" cx="1190.1" cy="222" r="0">
	
		<animate  fill="remove" to="12" begin="0.6" attributeName="r" additive="replace" calcMode="linear" repeatCount="indefinite" dur="2" restart="always" from="0" accumulate="none">
		</animate>
	
		<animate  fill="remove" begin="0.6" attributeName="opacity" additive="replace" calcMode="linear" repeatCount="indefinite" dur="2" values="0;0.1;0.65;0" restart="always" accumulate="none">
		</animate>
	</circle>
</g>
<g>
	<circle class="st2" cx="1119.9" cy="261.9" r="6"/>
	<circle class="st5" cx="1119.9" cy="261.9" r="0">
	
		<animate  fill="remove" to="12" begin="0.3" attributeName="r" additive="replace" calcMode="linear" repeatCount="indefinite" dur="2" restart="always" from="0" accumulate="none">
		</animate>
	
		<animate  fill="remove" begin="0.3" attributeName="opacity" additive="replace" calcMode="linear" repeatCount="indefinite" dur="2" values="0;0.1;0.65;0" restart="always" accumulate="none">
		</animate>
	</circle>
</g>
<g>
	<circle class="st2" cx="1131.2" cy="245.4" r="6"/>
	<circle class="st5" cx="1131.2" cy="245.4" r="0">
	
		<animate  fill="remove" to="12" begin="1.5" attributeName="r" additive="replace" calcMode="linear" repeatCount="indefinite" dur="2" restart="always" from="0" accumulate="none">
		</animate>
	
		<animate  fill="remove" begin="1.5" attributeName="opacity" additive="replace" calcMode="linear" repeatCount="indefinite" dur="2" values="0;0.1;0.65;0" restart="always" accumulate="none">
		</animate>
	</circle>
</g>
<g>
	<circle class="st2" cx="1104.3" cy="269.8" r="6"/>
	<circle class="st5" cx="1104.3" cy="269.8" r="0">
	
		<animate  fill="remove" to="12" begin="1.2" attributeName="r" additive="replace" calcMode="linear" repeatCount="indefinite" dur="2" restart="always" from="0" accumulate="none">
		</animate>
	
		<animate  fill="remove" begin="1.2" attributeName="opacity" additive="replace" calcMode="linear" repeatCount="indefinite" dur="2" values="0;0.1;0.65;0" restart="always" accumulate="none">
		</animate>
	</circle>
</g>
<g>
	<circle class="st2" cx="1081.8" cy="310.4" r="6"/>
	<circle class="st5" cx="1081.8" cy="310.4" r="0">
	
		<animate  fill="remove" to="12" begin="0.9" attributeName="r" additive="replace" calcMode="linear" repeatCount="indefinite" dur="2" restart="always" from="0" accumulate="none">
		</animate>
	
		<animate  fill="remove" begin="0.9" attributeName="opacity" additive="replace" calcMode="linear" repeatCount="indefinite" dur="2" values="0;0.1;0.65;0" restart="always" accumulate="none">
		</animate>
	</circle>
</g>
<g>
	<circle class="st2" cx="1071.8" cy="341" r="6"/>
	<circle class="st5" cx="1071.8" cy="341" r="0">
	
		<animate  fill="remove" to="12" begin="0.5" attributeName="r" additive="replace" calcMode="linear" repeatCount="indefinite" dur="2" restart="always" from="0" accumulate="none">
		</animate>
	
		<animate  fill="remove" begin="0.5" attributeName="opacity" additive="replace" calcMode="linear" repeatCount="indefinite" dur="2" values="0;0.1;0.65;0" restart="always" accumulate="none">
		</animate>
	</circle>
</g>
<g>
	<circle class="st2" cx="1132.6" cy="237.2" r="6"/>
	<circle class="st5" cx="1132.6" cy="237.2" r="0">
	
		<animate  fill="remove" to="12" begin="0.2" attributeName="r" additive="replace" calcMode="linear" repeatCount="indefinite" dur="2" restart="always" from="0" accumulate="none">
		</animate>
	
		<animate  fill="remove" begin="0.2" attributeName="opacity" additive="replace" calcMode="linear" repeatCount="indefinite" dur="2" values="0;0.1;0.65;0" restart="always" accumulate="none">
		</animate>
	</circle>
</g>
<g>
	<circle class="st2" cx="1097.6" cy="269.2" r="6"/>
	<circle class="st5" cx="1097.6" cy="269.2" r="0">
	
		<animate  fill="remove" to="12" begin="1.8" attributeName="r" additive="replace" calcMode="linear" repeatCount="indefinite" dur="2" restart="always" from="0" accumulate="none">
		</animate>
	
		<animate  fill="remove" begin="1.8" attributeName="opacity" additive="replace" calcMode="linear" repeatCount="indefinite" dur="2" values="0;0.1;0.65;0" restart="always" accumulate="none">
		</animate>
	</circle>
</g>
<g>
	<g>
		<path class="st6" d="M855.5,589.3c0,0.4-0.3,0.7-0.7,0.7H693.1c-0.4,0-0.7-0.3-0.7-0.7v-48.6c0-0.4,0.3-0.7,0.7-0.7h161.6
			c0.4,0,0.7,0.3,0.7,0.7L855.5,589.3L855.5,589.3z M694.3,587.5c0,0.4,0.3,0.7,0.7,0.7h157.9c0.4,0,0.7-0.3,0.7-0.7v-44.9
			c0-0.4-0.3-0.7-0.7-0.7H695c-0.4,0-0.7,0.3-0.7,0.7V587.5z"/>
	</g>
	<g>
		<path class="st7" d="M701.2,573.4v-18.9h6.7c2.1,0,3.6,0.4,4.8,1.2c1.1,0.8,1.7,1.9,1.7,3.2c0,1-0.3,1.9-1,2.7
			c-0.7,0.8-1.6,1.3-2.6,1.6v0c1.3,0.2,2.4,0.7,3.2,1.5c0.8,0.8,1.2,1.8,1.2,3.1c0,1.7-0.6,3.1-1.8,4.1c-1.2,1-2.9,1.5-5,1.5H701.2z
			 M705.2,557.5v4.7h1.9c0.9,0,1.6-0.2,2.2-0.7c0.5-0.4,0.8-1.1,0.8-1.8c0-1.4-1.1-2.2-3.2-2.2H705.2z M705.2,565.2v5.2h2.4
			c1,0,1.8-0.2,2.4-0.7c0.6-0.5,0.9-1.1,0.9-2c0-0.8-0.3-1.4-0.9-1.9c-0.6-0.4-1.4-0.7-2.4-0.7H705.2z"/>
		<path class="st7" d="M717.1,566.7c0-2.2,0.7-4,2-5.2c1.3-1.3,3.1-1.9,5.4-1.9c2.2,0,3.9,0.6,5.2,1.9c1.3,1.3,1.9,2.9,1.9,5
			c0,2.2-0.7,4-2,5.3c-1.3,1.3-3.1,2-5.3,2c-2.2,0-3.9-0.6-5.2-1.9C717.7,570.6,717.1,568.9,717.1,566.7z M721.1,566.7
			c0,2.7,1.1,4,3.3,4c2.1,0,3.2-1.4,3.2-4.2c0-2.6-1.1-4-3.2-4c-1,0-1.8,0.4-2.4,1.1C721.4,564.4,721.1,565.4,721.1,566.7z"/>
		<path class="st7" d="M733.5,566.7c0-2.2,0.7-4,2-5.2c1.3-1.3,3.1-1.9,5.4-1.9c2.2,0,3.9,0.6,5.2,1.9c1.3,1.3,1.9,2.9,1.9,5
			c0,2.2-0.7,4-2,5.3c-1.3,1.3-3.1,2-5.3,2c-2.2,0-3.9-0.6-5.2-1.9C734.2,570.6,733.5,568.9,733.5,566.7z M737.5,566.7
			c0,2.7,1.1,4,3.3,4c2.1,0,3.2-1.4,3.2-4.2c0-2.6-1.1-4-3.2-4c-1,0-1.8,0.4-2.4,1.1C737.8,564.4,737.5,565.4,737.5,566.7z"/>
		<path class="st7" d="M771.9,573.4H768v-7.7c0-2.1-0.8-3.1-2.3-3.1c-0.7,0-1.3,0.3-1.7,0.9s-0.7,1.4-0.7,2.3v7.6h-3.9v-7.8
			c0-2-0.7-3-2.2-3c-0.7,0-1.3,0.3-1.8,0.9c-0.4,0.6-0.7,1.4-0.7,2.4v7.5h-3.9v-13.5h3.9v2.1h0c0.5-0.8,1.1-1.4,1.9-1.8
			c0.8-0.4,1.6-0.6,2.5-0.6c1.9,0,3.2,0.8,3.9,2.6c1-1.7,2.6-2.6,4.5-2.6c2.9,0,4.4,1.8,4.4,5.4V573.4z"/>
		<path class="st7" d="M789.2,572.7c-1.4,0.7-3.2,1-5.4,1c-2.8,0-5.1-0.9-6.8-2.6c-1.7-1.7-2.5-4-2.5-6.8c0-3,0.9-5.4,2.8-7.3
			c1.9-1.9,4.3-2.9,7.2-2.9c1.8,0,3.4,0.2,4.6,0.7v3.9c-1.3-0.7-2.7-1.1-4.3-1.1c-1.8,0-3.3,0.6-4.4,1.8s-1.7,2.7-1.7,4.6
			c0,1.9,0.5,3.3,1.6,4.5c1.1,1.1,2.5,1.7,4.3,1.7c1.7,0,3.2-0.4,4.6-1.2V572.7z"/>
		<path class="st7" d="M792.1,573.4v-20h3.9v20H792.1z"/>
		<path class="st7" d="M798.7,566.7c0-2.2,0.7-4,2-5.2c1.3-1.3,3.1-1.9,5.4-1.9c2.2,0,3.9,0.6,5.2,1.9c1.3,1.3,1.9,2.9,1.9,5
			c0,2.2-0.7,4-2,5.3s-3.1,2-5.3,2c-2.2,0-3.9-0.6-5.2-1.9C799.4,570.6,798.7,568.9,798.7,566.7z M802.7,566.7c0,2.7,1.1,4,3.3,4
			c2.1,0,3.2-1.4,3.2-4.2c0-2.6-1.1-4-3.2-4c-1,0-1.8,0.4-2.4,1.1C803,564.4,802.7,565.4,802.7,566.7z"/>
		<path class="st7" d="M828.6,573.4h-3.9v-2.1h-0.1c-1,1.6-2.4,2.4-4.1,2.4c-3.1,0-4.7-1.9-4.7-5.7v-8.1h3.9v7.8c0,2,0.8,3,2.4,3
			c0.8,0,1.4-0.3,1.9-0.8c0.5-0.6,0.7-1.3,0.7-2.2v-7.7h3.9V573.4z"/>
		<path class="st7" d="M845.2,573.4h-3.9v-1.9h-0.1c-1,1.5-2.4,2.2-4.2,2.2c-1.7,0-3.1-0.6-4.1-1.8c-1-1.2-1.5-2.9-1.5-5
			c0-2.2,0.6-4,1.7-5.4c1.1-1.4,2.6-2,4.4-2c1.8,0,3,0.6,3.7,1.9h0.1v-8.1h3.9V573.4z M841.3,565.8c0-0.9-0.3-1.7-0.8-2.3
			c-0.5-0.6-1.2-0.9-2.1-0.9c-1,0-1.7,0.4-2.3,1.1c-0.5,0.8-0.8,1.8-0.8,3.1c0,1.2,0.3,2.2,0.8,2.9c0.5,0.7,1.3,1,2.2,1
			c0.9,0,1.6-0.4,2.1-1.1s0.8-1.6,0.8-2.8V565.8z"/>
	</g>
</g>
</svg>
